<svg xmlns="http://www.w3.org/2000/svg" viewBox="0 0 250.7 489.8" fill="#fff"><path class="st0" d="M112.9 9c-.7-.8-1.5-1.7-2.3-2.6-1.1-1.2-2.2-2.2-3.3-2.9v5.2c1.8.2 3.7.4 5.6.3z"/><path class="st1" d="M125.6 34.2l.7-2.1c-.4-1.1-.8-2.1-1.3-3-.2-.4-.3-.7-.5-1-.2.4-.5.8-.8 1.3l-.9 1.5c.6 1.8 1.2 3.5 2.2 5l.5.8c0-.9-.1-1.8.1-2.5z"/><path class="st2" d="M126.6 32.9c-.2.5-.4.9-.5 1.4-.1 1.1-.1 2.2 0 3.3l2 3.9 1.2.7c-.7-3.1-1.6-6.3-2.7-9.3z"/><path class="st3" d="M122.6 30.1c.5-.9 1.3-1.7 1.6-2.7v-.1c-1.5-3.3-3.1-6.4-5-9.6-1.5.7-3 1.4-4.4 2.3.7.7 1.6 1.1 2.4 1.7.7.5 1.1 1.1 1.7 1.7 1.4 1.5 2.4 2.9 3 4.9.3.5.5 1.2.7 1.8z"/><path class="st4" d="M122.3 30.8c-.2-.4-.3-.8-.4-1.3-.4-1.2-.8-2.5-1.5-3.6-.6-.9-1.4-1.7-2.1-2.5-1.1-1.3-2.8-1.9-4-3.2-.8.5-1.5 1.1-2.3 1.7l-1.8 1.5c.6 1.2 1.2 2.3 2 3.4 2.3 3.2 5 6.3 8 9 .5-1.7 1.3-3.3 2.1-5z"/><path class="st5" d="M126 38.5l-.3-.6c-.1 0-.1-.1-.1-.2-.4-.7-.9-1.3-1.3-2.1-.7-1.4-1.2-2.8-1.7-4.3-.8 1.6-1.4 3.4-1.6 5 2 1.7 4.1 3.3 6.4 4.6-.5-.7-.9-1.6-1.4-2.4z"/><path class="st6" d="M108 16.6c.1.1.1.2.1.3.4 2.1 1.1 4.2 2 6.1.7-.6 1.4-1.3 2.1-2 1.2-1.2 2.9-2 4.4-2.8.8-.4 1.6-.8 2.4-1.1-1.5-2.5-3.3-5-5.5-7.6-2 .2-4.1 0-6.1-.3 0 2.3.2 4.6.6 6.9-.1.2-.1.4 0 .5z"/><path class="st7" d="M72.4 124.8c-.9-1.3-2.5-1.8-3.7-2.7-.5 2.1-1.1 4.2-1.5 6.2-.8 3.7-1.8 7.5-4.1 10.5 1.1-.4 2.1-.9 2.9-1.9.8-1 1.6-2.1 2.3-3.1 1.7-2.6 2.9-5.5 3.9-8.4.1-.2.2-.4.2-.6z"/><path class="st8" d="M70.3 113.8c-.1.2-.2.4-.4.7-.1 2.4-.6 4.7-1.1 7 1.3.9 2.8 1.5 3.9 2.7.9-2.6 1.9-5.1 2.7-7.7.4-1.2.8-2.4 1.2-3.7-2.1.6-4.1.9-6.3 1z"/><path class="st9" d="M77.2 102.2c.1-.1.1-.1.2-.1.3-2.5.5-4.9 1-7.3l-1-.2c-.8 1.7-1.5 3.1-1.9 3.9-.7 1.7-1.3 4.7-2.3 8.3 1.1-1.7 2.5-3.2 4-4.6z"/><path class="st10" d="M77.4 102.8c-1.9 1.9-3.7 3.9-5 6.3-.5 1.3-1 2.7-1.7 4 2.1-.1 4.1-.5 6.1-1 .4-1.3.9-2.6 1.4-3.9.4-1.1.9-2.2 1.4-3.2-.8-.4-1.9-1.3-2.2-2.2z"/><path class="st11" d="M82 95.2c-1.1.1-2.1-.1-3.1-.3-.6 2.4-.8 4.9-1 7.4 0 .5.5 1 .9 1.3.3.3.7.6 1.1.8.6-1.2 1.2-2.4 1.8-3.5 1.2-2.2 2.5-4.6 4.5-6.3l.6-.5c-1.6.2-3.1 1-4.8 1.1z"/><path class="st12" d="M98.9 79l-.1-4.5c-2.9.5-5.5 1.8-8 3.3l-.1.1c-.5.4-.9.7-1.5.9.5 1.6 1.6 2.9 2.7 4.2 1 1.2 2 2.5 3.3 3.4l.1.1c1.3-1 2.6-2 4.1-2.9-.2-1.3-.3-2.7-.4-4-.2 0-.3-.4-.1-.6z"/><path class="st13" d="M81.9 83c1.3-.1 2.5-.2 3.8-.2 0-1.1-.1-2.2-.2-3.3h-.6c-.9-.1-1.9-.2-2.7-.7l-.5-.4c.5 1.5.5 2.9.2 4.6z"/><path class="st14" d="M85.7 83.5c-1.3 0-2.6.1-3.9.2v.2c-.4 2.3-2.4 6.7-4.1 10.2 1.4.3 2.9.8 4.3.6 1.6-.3 3.1-.9 4.7-1.1-.8-3.4-.8-6.8-1-10.1z"/><path class="st15" d="M90.9 82.9c-.9-1.2-1.9-2.4-2.3-3.8-.8.3-1.7.4-2.6.4.5 4.6.1 9.4 1.2 13.9h.1c.1 0 .1 0 .2.1 1.6-1.5 3.1-3.1 4.8-4.5l2.5-2.1c-1.5-1-2.7-2.5-3.9-4z"/><path class="st16" d="M80.1 73.2c-.7 0-1.3.2-1.9.4.3.3.5.6.8 1 .8.9 1.5 1.8 1.9 2.6l.7.6c1.1.9 2.3 1.1 3.6 1.2 1.6.1 3.2-.2 4.5-1.1-3.2-1.1-7.4-1.9-9.6-4.7z"/><path class="st17" d="M78.3 65.6c-2.1-.6-3.8-1.8-5.5-3.1.8 4.3 2.8 7.7 5.1 10.5.6-.2 1.2-.4 1.9-.5-.1-.2-.3-.4-.4-.7-.9-1.7-1.4-4.1-1.1-6.2z"/><path class="st18" d="M73.9 54.6c-.1-1.1-.2-2.2-.3-3.2-.1-1.1 0-2.1 0-3.2-.1.1-.2.2-.2.3-.6 3-1.2 7.1-1 11.2 0 .7.1 1.3.2 2l.7.5c-.3-2.6.1-5 .6-7.6z"/><path class="st19" d="M79.2 55.2c-1.6-.4-3.2-.3-4.8-.5v.1c-.5 2.6-.9 5.1-.6 7.8v.1c1.4 1 2.8 1.9 4.5 2.4.3-1.3.9-2.4 1.9-3.3 1.4-1.8 2.5-3.8 3.7-5.8-1.5-.4-3.1-.4-4.7-.8z"/><path class="st20" d="M87.1 18.4c2.2-1 4.6-1.3 6.7-2.5-.5-2.2-1.2-4.3-2.4-6.1-1.1-1.6-2.4-3-3.4-4.6-.7.7-1.2 1.4-1.7 2.2.6 3.5.9 7.2.8 11z"/><path class="st21" d="M94.2 17.8c-.1-.4-.2-.8-.2-1.3-2.1 1.2-4.6 1.5-6.8 2.6-.1 1.8-.3 3.6-.6 5.3 2.6 1.7 4.6 4.2 7.5 5.1.4-4 .8-7.9.1-11.7z"/><path class="st22" d="M86.4 25.1c-.3 1.8-.8 3.6-1.4 5.4-.9 2.5-2.1 5-3.4 7.3.9.2 1.7.4 2.6.3 1.6-.2 3.1-.9 4.8-1 1.7-.1 3-.3 4.3-1.4.1-.5.2-1.1.2-1.6.1-1.3.3-2.6.5-4-3-.8-5-3.3-7.6-5z"/><path class="st23" d="M90.6 37.6c-1.6.2-3.1.4-4.7.8-1.4.4-2.6.4-4.1 0-.2-.1-.4-.1-.6-.1-.5 1-1.1 1.9-1.7 2.8-.3.5-.6.9-.9 1.3 1.6 1.1 3.1 2.3 4.8 3.3 1.6 1 3.3 2 5 3.1 2.2-3.9 3.8-7.9 4.6-12.3-.6.7-1.4 1.1-2.4 1.1z"/><path class="st24" d="M82.8 46.1L78.3 43c-1.3 1.7-2.7 3.2-4.2 4.7.1 1.2-.1 2.4.1 3.6.1.9.2 1.8.2 2.7 1.7.2 3.3.1 4.9.5 1.7.5 3.4.4 5.1.7 1.2-1.9 2.6-3.8 3.8-5.8l-5.4-3.3z"/><path class="st25" d="M115.3 58.6c.5 2.6 3.3 3.9 5.8 3.5 1.9-.3 3.4-1.4 4.4-2.9-1.8-2.9-4.8-4.7-7-7.3l-.2-.1c-.2-.2-.3-.4-.5-.7-.6 2.7-3 4.6-2.5 7.5z"/><path class="st26" d="M106 50c.7-.8 1.5-1.7 2.4-2.4 1-.8 2.4-1.5 2.6-2.9-.9-.9-1.8-1.8-2.5-2.9-1.1-1.7-2-3.5-2.7-5.4-2.6 3.3-4.2 7-5.1 11 .4 2.3 1 4.5 1.8 6.8.8-1.6 2.3-2.8 3.5-4.2z"/><path class="st27" d="M114.7 57.2c.3-2.3 2.1-4.1 2.5-6.3l.1-.2c-1.8-2-3.9-3.7-5.9-5.5-.4 1.7-2.3 2.6-3.6 3.7-1 1-2 2.1-3 3.2-.8.9-1.7 1.7-2.3 2.9.1.3.2.6.3.8 4.2.1 8.1.3 11.9 1.4z"/><path class="st28" d="M107.3 66c1.8.2 4.3-.8 5.6-2 1.1-1 2-2 3.3-2.7-.6-.6-1.1-1.3-1.3-2.1-.1-.5-.2-.9-.2-1.3-3.7-1.1-7.6-1.3-11.4-1.4.7 1.9 1.5 3.8 2.3 5.7.2.4.4.8.5 1.2 0 0 0 .1.1.1.3.9.7 1.7 1.1 2.5z"/><path class="st29" d="M119.3 62.8c-.9-.1-1.8-.5-2.6-1l-.1.1c-1.9.8-3 2.8-4.9 3.7-1.3.6-2.7 1.2-4.2 1.1.9 2 1.9 3.9 2.9 5.8h.1c2.3.1 4.7.3 7.1.5-.4-3.6.6-6.9 1.7-10.2z"/><path class="st30" d="M125.8 59.8c-1.5 2-3.5 3.1-6 3-1 3.3-2.1 6.6-1.6 10.1 1.6.1 3.1.1 4.7 0v-.1c2.3-3.4 5-8.8 2.9-13z"/><path class="st31" d="M102.2 62.9c1.1.3 2.1.3 3.2.4l-.6-1.4c-1.8-4.2-3.5-8.6-4.4-13.1-.6 3.3-.9 6.8-1 10.2v3.3c.9.1 1.8.4 2.8.6z"/><path class="st32" d="M99.5 78.5c3.3-2.9 5.7-6.9 8-10.6-.6-1.3-1.2-2.6-1.8-4-1.1-.2-2.2-.1-3.3-.4-1-.2-2-.6-3.1-.6v8.2c0 2.6.1 5 .2 7.4z"/><path class="st33" d="M114.9 79.8c-1.1-1.3-2.1-2.7-3.1-4.1-1.5-2.3-2.8-4.7-4-7.1-1.8 2.9-3.7 5.9-6 8.5 1.8 1.9 4.6 2.6 6.5 4.5 2.2-.5 4.4-1.1 6.6-1.8z"/><path class="st34" d="M107.8 82c-1.9-1.9-4.6-2.6-6.4-4.5l-1.8 1.8c.1 2.2.3 4.4.7 6.6 0 .1 0 .2-.1.3.1 2.3.5 4.5.9 6.7 1.9-1.8 4.8-1.9 7.3-2h1c-.8-2.9-1.5-5.8-1.6-8.9z"/><path class="st35" d="M115.3 80.3c-2.3.7-4.6 1.4-6.9 1.9.1 2.9.7 5.8 1.6 8.5 1.6-.1 3.1-.2 4.7-.1 1.5.1 2.9.8 4.4 1 .1-2.1.3-4.3 1.3-6.1-1.8-1.6-3.5-3.3-5.1-5.2z"/><path class="st36" d="M113.1 101c1.4-.5 2.8-1.1 4.3-1.5l1.9-.5c-.2-1.6-.2-3.3-.2-5v-1.8c-1.7-.2-3.2-1-4.9-1-1.6 0-3.1.1-4.7.2-.7 0-1.4 0-2.2.1 2.3 2.8 3.1 6.6 5.7 9.2.1.1.1.2.1.3z"/><path class="st37" d="M107.7 102.6c1-.2 2-.4 2.9-.7.7-.2 1.3-.5 1.9-.7-2.7-2.7-3.4-6.8-6.1-9.6-1.9.1-3.9.5-5.2 1.9l1.1 5.3.9 4.8c1.2-.1 2.2-.6 3.4-.8l.7-.1c.1-.2.3-.2.4-.1z"/><path class="st38" d="M111.4 108.2c1.3 1.5 2.8 2.9 4 4.5 0 0 0 .1.1.1 1.8-1.1 3.7-2.1 5.6-3l-.2-1c-.2-1.2-.5-2.4-.7-3.7l-.1-.1c-.1-.1-.1-.3 0-.4-.3-1.6-.5-3.2-.7-4.8-.8.2-1.6.4-2.3.6-2.5.7-4.8 2-7.3 2.5l-1.8.4c.6 1.7 2.2 3.6 3.4 4.9z"/><path class="st39" d="M109.9 107.3c-.9-1.1-2-2.6-2.5-4-.5.1-1.1.2-1.6.4-.8.3-1.5.5-2.4.6.5 2.4 1 4.7 1.6 7l2.1 8.1c.3-.5.8-.9 1.3-1.3 1.2-1 2.3-2.1 3.6-3.1 1-.7 1.9-1.4 2.9-2l-5-5.7z"/><path class="st40" d="M117.5 123.1c2.1-1.2 4.1-2.4 6.2-3.3-1.1-3.1-2-6.2-2.6-9.4-2.9 1.5-5.8 2.9-8.4 4.9-1.1.8-2.1 1.8-3.1 2.6-.4.3-.8.6-1.2 1 1.5.7 2.8 1.7 4.3 2.3 1.6.6 3.3 1.1 4.8 1.9z"/><path class="st41" d="M119.3 131.9c1.4-.2 2.7-.6 3.9-1.3l3.7-1.8c-.7-2.1-1.7-4.1-2-6.2l-.9-2.2c-2.2.9-4.2 2.2-6.3 3.3 0 2.8-.1 5.7-.5 8.5l2.1-.3z"/><path class="st42" d="M126.3 142.1l.1.1c1.3-.7 2.6-1.3 4-1.8-.9-3.3-2-6.6-3-9.9l-.3-1.1-3.7 1.8c-1.1.6-2.3 1.1-3.6 1.3l-.8.1c1.9 3.6 4.7 6.5 7.3 9.5z"/><path class="st43" d="M118.5 132.8v-.1c-1.1.2-2 .4-3.1 1.1-.8.5-1.6 1-2.5 1.2.2 1 .8 1.6 1.4 2.5.4.6.7 1.3.9 2.1l1.7 4.9c.5 1.3.9 2.6 1.3 3.9 1.2-1.9 3.1-3.1 4.9-4.2.9-.5 1.8-1 2.7-1.6-2.7-3.1-5.4-6.1-7.3-9.8z"/><path class="st44" d="M118.8 150c1.6.2 3.1.7 4.7 1 1.5.2 3 .5 4.5.9.9-.1 1.6-.9 2.4-1.4.7-.5 1.5-.7 2.2-1.1-.5-2.7-1.2-5.3-1.9-8 0-.1-.1-.2-.1-.4-2.4.7-4.6 2.1-6.8 3.4-2 1.1-4.1 2.4-5.3 4.5.1.4.1.8.3 1.1z"/><path class="st23" d="M121.7 165.7c1.1-1.4 2.9-2.3 4.5-2.7l.6-6c.1-1.6.7-2.9 1-4.4-1.5-.4-3-.6-4.5-.9l-4.4-.9 1.1 4.2c.7 3.5 1.3 7.1 1.7 10.7z"/><path class="st45" d="M131 164.1c1.2.4 2.3.8 3.4 1.4 0-5.2-.7-10.3-1.7-15.3-1 .5-1.9.9-2.8 1.5-.4.3-.9.7-1.5.8l-.7 2.1c-.3 1-.4 2-.4 3.1-.1 1.7-.3 3.5-.5 5.2 1.4.1 2.8.8 4.2 1.2z"/><path class="st44" d="M125 174.3c1.2-.5 2.3-1.2 3.6-1.6 1.2-.4 2.5-.6 3.6-1.1.9-.4 1.6-.9 2.6-1.2 0-1.4-.1-2.8-.2-4.2-1.3-.7-2.6-1.1-4-1.6-1.2-.4-2.4-1-3.7-1.2h-.2c-1.7.5-3.8 1.4-4.7 3v.1c.3 3 .5 6 .5 9.1.6-.6 1.5-.9 2.5-1.3z"/><path class="st46" d="M124.4 201.2l-3.6-2.4c-.8 4.2-1.8 8.4-2.7 12.6 2.7-.6 5.5-.7 8.4-.7h.1c.8-1.8 1.5-3.7 2.1-5.7 0-.1 0-.1.1-.2l.3-.9c-1.6-1-3.2-1.6-4.7-2.7z"/><path class="st47" d="M118 212.1c-.2.9-.4 1.8-.5 2.7 0 .1-.1.2-.2.2-.8 2.7-1.3 5.5-2.2 8.2-.8 2.5-1.9 4.8-2.6 7.4l3.8-4.5c3.8-4.6 7.5-9.4 10-14.8-2.8 0-5.6.2-8.3.8z"/><path class="st48" d="M121.8 193.7l-.8 4.4c.7.7 1.7 1 2.5 1.6.5.4 1 .8 1.6 1.2 1.3.9 2.8 1.6 4.2 2.5 1-2.9 1.9-5.8 2.6-8.8 0-.1 0-.2.1-.2l.6-2.7c-3.8-.2-7.4.3-10.8 2z"/><path class="st44" d="M121.8 192.9c3.4-1.6 7.1-2.2 10.8-2 .6-2.5 1-5.1 1.3-7.7-3.8.5-7.8-1.4-11.4-2.3.2 4.1-.1 8.1-.7 12z"/><path class="st49" d="M122.5 180.3c3.7.8 7.8 2.9 11.6 2.3.5-3.8.7-7.6.6-11.4-1.2.3-2.2 1.1-3.3 1.5-1 .3-2.2.5-3.2.9-1.9.8-4.3 1.5-5.9 2.9v1.3c.1.8.2 1.7.2 2.5z"/><path class="st50" d="M116.4 132.5l.3-.1c.4-2.9.5-5.8.5-8.7-1.5-.8-3.2-1.1-4.8-1.9-1.5-.8-2.9-1.8-4.5-2.4-.3.3-.5.6-.5 1 1.3 4.8 2.9 9.6 5.2 14 1.5-.3 2.4-1.4 3.8-1.9z"/><path class="st51" d="M109.2 210.6c-1-1.5-2-3-2.8-4.6v-.1c-2.3 2.2-4.6 4.5-6.4 7.2-.8 1.1-1.4 2.3-1.9 3.6 1.2.1 2.4.6 3.6.8h.2c.1-.1.4-.1.4.1 1.6.2 3.2.1 4.8-.3 1.4-.4 2.9-.8 4.4-1.1.2 0 .3 0 .5-.1-.8-2-1.7-3.8-2.8-5.5z"/><path class="st52" d="M103 232.1c.1-1.3 0-2.7.2-4l.6-3.6v-.1c-.3-1.2-.7-2.5-1.2-3.6-.4-.9-.8-1.8-.9-2.7-1.3-.3-2.5-.8-3.8-.9-.1 0-.1 0-.2-.1-.9 2.3-1.5 4.8-1.9 7.3.2.1.2.5 0 .6-.2 1.5-.4 3.1-.5 4.6l-.1 1.2c1.4.1 2.7 0 4 .3 1.3.4 2.5.8 3.8 1z"/><path class="st53" d="M105 238.7c-.9-1.9-2-3.9-2.1-6-1.2-.2-2.4-.6-3.7-.9-1.3-.3-2.6-.2-3.9-.3-.2 4.8 0 10.1 3.1 13.8 2.2-2.1 4.5-4.3 6.6-6.6z"/><path class="st15" d="M104.3 225c-.2 1.3-.5 2.5-.6 3.8 0 1.2-.1 2.4-.2 3.6 0 .1 0 .2-.1.2.2 2 1.2 3.9 2 5.7 1.1-1.1 2.1-2.2 3.1-3.3 1-1.1 2-2.3 3-3.5.4-1.7 1-3.3 1.6-5-2.8-.6-5.8-1.1-8.8-1.5z"/><path class="st54" d="M112.7 216.6c0 .3-.4.4-.5.1-1.8.3-3.6.9-5.4 1.3-1.4.4-2.6.3-4 .2h-.3c.2 1 .6 1.9 1 2.8.4 1.1.8 2.2 1.1 3.3 3.1.4 6.1.9 9.1 1.7l.9-2.5c.8-2.3 1.3-4.8 1.9-7.2-1.4.3-2.6.2-3.8.3z"/><path class="st55" d="M114.4 204c-1.2-.9-2.4-1.7-3.9-2.2l-3.7 3.6.1.1c.9 2 2.3 3.7 3.4 5.6.9 1.5 1.6 3.2 2.3 4.8 1.3-.1 2.7 0 3.9-.4h.1l.4-1.5.1-.2c.5-2.4 1-4.9 1.6-7.4-1.5-.7-2.9-1.4-4.3-2.4z"/><path class="st56" d="M114.6 203.5l4.1 2.5c1.5-6.6 2.9-13.2 3.2-19.9-2.8 5.1-6 9.9-10 14.2-.4.4-.7.7-1 1.1 1.4.4 2.5 1.2 3.7 2.1z"/><path class="st57" d="M85.7 103.1c-.7-.8-1.3-1.5-2-2.2-.4-.3-.6-.7-.8-1.1-.8 1.3-1.4 2.7-2.1 4-1.2 2.5-2.4 5.2-3.3 7.9l-.1.3c.6-.2 1.2-.4 1.9-.5 3.1-1 6.1-2 9.4-2.2.1-.4.2-.7.4-1.1l.5-1.3c-1.4-1.2-2.7-2.5-3.9-3.8z"/><path class="st58" d="M89.8 96.3c-1.3-.1-2.4-.3-3.6-.8 0 0-.1 0-.1.1-1.1 1-2 2.3-2.8 3.6v.1c.2.9 1.1 1.4 1.7 2.1l1.5 1.7c1.1 1.2 2.2 2.3 3.4 3.3l1.6-3v-.1c0-.2.1-.3.2-.3l.3-.5c.9-1.6 1.9-3.3 3.3-4.5-1.7-1.5-3.4-1.6-5.5-1.7z"/><path class="st59" d="M99.6 85.6v-.2l-.2-1.1c-4.7 2.9-8.7 6.9-12.8 10.6 1.8.7 3.4.4 5.3.7 1.4.2 2.6.8 3.8 1.6l.1.1.2-.2c1.6-1.2 3.4-2.2 4.6-3.8-.4-2.5-.9-5.1-1-7.7z"/><path class="st60" d="M91.3 161.1c-.7-.9-1.6-.9-2.6-.8-.4 2.8-.8 5.6-.8 8v.4c.5-1.3 1.1-2.4 2-3.4l.1-.1c.3-1.4.8-2.7 1.5-4 0 0-.1 0-.2-.1z"/><path class="st61" d="M91 150.7c-.4.7-.8 1.4-1.2 2.2l-1 6.7c1.1-.1 2.1 0 2.9 1l.1.2c.4-.7.8-1.5 1.3-2.2-.8-2.6-1.5-5.2-2.1-7.9z"/><path class="st62" d="M90.8 179.6c-.6-1.5-.9-3.2-1-3.9-.5-3-.6-6.2 0-9.1-.8 1.2-1.4 2.5-1.8 3.9.2 4.1.9 8.1 1.7 11.7.4-.9.8-1.7 1.1-2.6z"/><path class="st63" d="M90 195.3c1.2-1.7 1.7-3.9 2-6 .4-2.3.8-4.5.8-6.9-.7-.3-1.3-1.2-1.7-2.1-.3.9-.9 1.7-1.3 2.5.4 1.8.8 3.4 1.1 4.9.7 3.4-.3 5.8-2.3 7.2.4.3.9.4 1.4.4z"/><path class="st64" d="M107.3 177.5c-3.6-.3-8-.6-10.8 2-.2.9-.5 1.6-1 2.2v.1c.3 1.7 1.8 3 3 4.2l4.4 3.7c2.5-3.8 3.9-7.9 4.4-12.2z"/><path class="st65" d="M107.7 171.6c-3.7-1.3-7.7-1.8-11.6-2.2l.2 1.6c.1 1.7.7 5 .4 7.6 3-2.3 7.2-2 10.8-1.6h.1c.1-1.9.2-3.6.1-5.4z"/><path class="st66" d="M102.2 147.1c-.9-2.5-1.9-5.1-2.9-7.6-2.6 3.5-5.6 6.8-7.9 10.5.2 1.1.5 2.2.8 3.3.6-.1 1.2-.4 1.7-.6l1.8-.4c1.2-.5 2.5-.8 3.8-1.1l.1-.1c.6-.5 1.1-1.1 1.5-1.7.5-.6 1.1-1.4 1-2.2.1 0 .1 0 .1-.1z"/><path class="st67" d="M99.4 152c-1.4.3-2.7.9-4 1.1-1 .2-2 .7-3.1.9 1 3.6 2.1 7.2 2.9 10.9.8-1.8 2.8-2.8 4.1-4.2 0-.1.1-.2.2-.1 0-1.7-.4-3.3-.4-4.9.2-1.3.3-2.5.3-3.7z"/><path class="st68" d="M103.3 150.2c-.2-.6-.4-1.3-.7-1.9-.4 1.3-1.7 2.6-2.6 3.4-.1 1.5-.3 3-.2 4.4.1 1.5.4 2.9.4 4.3 2-.3 3.5-2.1 5.7-1.7-.7-2.9-1.6-5.8-2.6-8.5z"/><path class="st69" d="M106.1 159.5c-2.4-.6-4 1.6-6.3 1.7-1.3 1.4-3.6 2.5-4.1 4.4 0 .1-.1.2-.1.2.2.9.4 1.9.5 2.8 4 .5 7.9.9 11.7 2.2-.2-3.7-.8-7.6-1.7-11.3z"/><path class="st70" d="M97.6 185.8c-1.1-1.1-2.2-2.2-2.6-3.8-.3.2-.7.4-1.1.5-.2.1-.4.1-.6.1 0 2.5-.4 4.9-.9 7.3-.3 1.9-.8 3.9-1.9 5.5 4.4.6 8.3-2.8 11.8-5.5-1.5-1.3-3.2-2.6-4.7-4.1z"/><path class="st71" d="M95.4 168.7h.1c-.1-.5-.1-1-.2-1.6-.5-2.6-1.2-5.2-2-7.8-3.1 4.5-3.9 10.1-3.1 15.4.4-1 1.3-1.8 2-2.7.9-1.2 1.8-2.5 3.1-3.2 0-.1.1-.1.1-.1z"/><path class="st72" d="M96 174c-.1-1.6-.2-3.1-.4-4.7h-.1l-.1.1c-1.3.7-2 1.9-2.9 3-.7 1-1.8 2-2.1 3.2l-.1.2c.5 2.3 2.3 8.5 4.8 5 1.4-1.8 1-4.6.9-6.8z"/><path class="st73" d="M90 120.7c1.1.5 2.2.5 3.3.5-.4-2-.7-4-.8-6.1-.3-3.6-.4-7.2-.8-10.8-.8 1.4-1.5 2.8-2 4.2l-.3.8c.3.1.3.6-.1.6h-.2c-.5 1.5-.8 3.1-1 4.7-.3 1.7-.5 3.3-.6 5 .9.2 1.6.7 2.5 1.1z"/><path class="st74" d="M94.7 126.7c-.5-1.6-.9-3.3-1.3-4.9-1.1 0-2.2 0-3.3-.4l-2.8-1.2c-.2 1.8-.3 3.7-.4 5.5-.1 1.7-.1 3.5 0 5.3 1.2.7 2.2 1.6 3.1 2.6 1.4-2.3 3-4.4 4.7-6.4l.1-.1c0-.1 0-.3-.1-.4z"/><path class="st75" d="M92.2 137.5c-.1-.1-.2-.2-.2-.4-1.3-2.1-2.9-4-5-5.3.1 1.2.4 2.5.7 3.6.9 1.2 1.6 3.1 2.1 5.5.8-1.1 1.8-2.2 2.4-3.4z"/><path class="st76" d="M95.8 143.1c-.9-1.9-2-3.5-3.1-5.1-.8 1.3-1.8 2.5-2.7 3.8.1.9.2 1.9.3 2.9.2 1.9 0 4.1-.3 6.5 1.6-2.9 3.7-5.5 5.8-8.1z"/><path class="st77" d="M95.1 127.7c-1.7 2-3.2 4.1-4.6 6.3.5.6 1 1.2 1.4 1.9 1.5 2.2 3.1 4.3 4.2 6.8 1-1.2 2-2.5 2.9-3.7-1.4-3.8-2.7-7.5-3.9-11.3z"/><path class="st78" d="M54 211.7c3-2 5.8-4.5 8-7.4l.1-.1c-.4-1.4-.8-2.9-1-4.4-2.8 0-5.8.2-8.4 1.4-1.3.6-2.3 1.3-3.3 2.2.1 3.3 1.9 6.3 4.6 8.3z"/><path class="st79" d="M62.4 214.6c2.2-.3 4.3-.1 6.4.4-1.8-2-3.5-4.1-4.8-6.4-.7-1.2-1.2-2.4-1.7-3.7-2.2 2.8-4.8 5.2-7.8 7.2l.6.4c1.1.7 2.1 1 3.3 1.3 0 0 0-.1.1-.1.2-.2.5 0 .5.2l2.5.6.7.2s.1-.1.2-.1z"/><path class="st80" d="M63.2 215.2c.2.1.4.1.5.2.1-.1.3 0 .4.2.7.3 1.3.6 1.9.9 1.3.4 3.9 1.2 6.8 2.3-1.1-.9-2.3-1.8-3.3-2.9-2-.6-4.1-.9-6.3-.7z"/><path class="st81" d="M33.4 226.6c1.1-1.3 2.6-2.1 3.8-3.3 0 0-.1 0-.1-.1-1.6-2.3-3.4-4.7-5.3-6.7-1.3-1.4-2.7-2.7-3.9-4.2-5.9 5.6 2.8 11 5.5 14.3z"/><path class="st15" d="M37.6 222.8c1.4-1.3 2.8-2.6 4.5-3.4-.4-.5-.8-1.1-1.1-1.7v.7s-5.4-12.5-12.5-6.6c0 0-.1 0-.1.1 1.5 1.9 3.3 3.5 4.9 5.4 1.4 1.7 2.9 3.6 4.3 5.5z"/><path class="st82" d="M53.5 200c0 .1 0 .1.1.2 2.3-.8 4.9-1.1 7.4-1.1-.3-1.8-.5-3.7-.7-5.6-4.2-.3-7 .1-9.2 1 .5 2 1.2 3.8 2.4 5.5z"/><path class="st83" d="M50.6 194.8c-2.2 1.1-3.8 2.9-5.6 5.1-.3.3-.5.7-.7 1.1 0 2.3.4 4.8 1.1 6.8.7-1.5 1.6-2.9 2.7-4.1.2-.3.5-.5.7-.7v-.1c0-.3.3-.4.4-.3 1.2-1 2.4-1.7 3.8-2.2-1.2-1.8-1.9-3.6-2.4-5.6z"/><path class="st84" d="M44.9 208.2c-.7-1.9-1.1-4-1.2-6.2-2 4.3-2.5 11.2-2.7 14.5.5 1.1 1.1 2.1 1.9 2.9v-.4c.2-3.5.7-7.3 2.2-10.7 0 .1-.1 0-.2-.1z"/><path class="st85" d="M42.6 219.9l-.1-.1c0 .1-.1.2-.2.2-1.9 1-3.1 2.3-4.7 3.7-1.3 1.1-2.7 2-3.8 3.3.2.3.1.4-.3.2-.1 0-.2 0-.2-.1-2.5-1.2-12.3-7.7-14.7.3.9.2 1.8.6 2.7.9l4.4 1.5c3.1 1 6.3 2 9.5 2.1 3.1.1 5.2-.7 6.3-3.8 1-2.7 1.2-5.5 1.4-8.3-.1.2-.2.2-.3.1z"/><path class="st86" d="M26 236.3c.7-1.7 1.2-3.4 1.4-5.2-.4-.1-.8-.2-1.2-.4-1.5-.5-3-1-4.4-1.5-1-.3-2.2-.8-3.3-1.1-1.8 6.7 3.2 7.8 7.5 8.2z"/><path class="st87" d="M29.2 240.5c3.5-1.7 7.9-3.2 7.9-7.8-.8.1-1.6 0-2.3 0-2.3-.2-4.6-.7-6.8-1.4-.2 1.8-.6 3.4-1.3 5.1 1.6.1 3.1.1 4 .3 3.4.8 1.6 2.1.2 2.3-1.2.2-13.5 1.8-12.1 8.6 3.1-2.9 6.6-5.3 10.4-7.1z"/><path class="st88" d="M29.5 241.2c-3.8 1.9-7.4 4.2-10.6 7.1.2.7.6 1.4 1 2.2l.3.5c1.9-.3 3.8-1.3 5.6-2 .7-.3 1.4-.5 2.2-.7.1-2.5 1.4-4.7 1.5-7.1z"/><path class="st89" d="M39.4 241.1c-.7-1.7-1.9-3-3-4.5-1.1 1.5-2.8 2.6-4.6 3.4-.6.3-1.2.5-1.7.8.1 2.5-1.3 4.7-1.5 7.1l1.4-.4c0-.1.1-.1.2-.1h.1c.7-.2 1.3-.5 1.9-.8 2.3-1.1 4.1-3 6.1-4.5l1.4-1c-.2.2-.3.1-.3 0z"/><path class="st90" d="M45.1 216c2.9-1 5.8-2.3 8.4-4-2.6-2.1-4.3-4.9-4.6-8.2-1.1 1.1-1.9 2.4-2.6 3.8-1 2-1.7 4.2-2.1 6.4 0 0 .1.1.1.2.2.7.5 1.4.8 1.9-.1 0-.1 0 0-.1z"/><path class="st91" d="M45.3 216.7c1.9 2.6 5.5 3.3 8.5 4.8 1.1-2.5 2.3-4.9 4.1-7.1-1.4-.4-2.7-1-3.9-1.9-2.7 1.7-5.7 3.1-8.7 4.2z"/><path class="st92" d="M41.7 229.7c-.4.6-.8 1.1-1.3 1.6-.8.8-1.8 1.1-2.8 1.3 0 1.4-.3 2.5-.9 3.5 1.2 1.6 2.5 2.9 3.2 4.8v.1c1.3-.9 2.6-1.8 3.9-2.9 1.2-1 2.4-2.1 3.4-3.2 0-.1.1-.2.2-.2.6-.7 1.1-1.4 1.5-2.1l.2-.3c-2.6-.4-4.9-1.7-7.4-2.6z"/><path class="st93" d="M43.4 222.2c-.1 1.1-.2 2.1-.4 3.2s-.5 2.5-1.1 3.7c2.5.9 4.9 2.2 7.6 2.6.7-1.3 1.3-2.7 1.9-4.1-3.3-.9-5.9-2.9-8-5.4z"/><path class="st94" d="M43.9 215.3l-.2 1.2c-.2 1.6-.2 3.2-.3 4.8 0 0 .1 0 .1.1 2.1 2.6 4.7 4.6 8 5.6h.1c.2-.5.4-.9.5-1.4l1.4-3.6c-3.6-1.6-8.2-2.8-9.6-6.7z"/><path class="st95" d="M30.1 248.2c-1.7.6-3.4 1-5.1 1.7-1.4.6-2.9 1.3-4.4 1.6 4.6 5.8 10.5 1.1 13.6-1.8-1.2-1-2.6-1.4-4.1-1.5z"/><path class="st96" d="M43.4 245.9c.8-3 1.9-6 2.8-9.1-.8.9-1.8 1.7-2.8 2.5l-6.1 4.4c-1.8 1.3-3.3 3-5.4 3.8-.1 0-.3.1-.4.2 1.2.2 2.3.7 3.2 1.5.6-.6 1.1-1 1.3-1.3 1.8-1.6 2.7-.4 1.9 1.1-.2.4-.9 1.7-1.6 3.2 1.9-.3 3.8-.5 5.7-.2l.3-1.5c.3-1.5.7-3 1.1-4.6z"/><path class="st97" d="M36 252.9c-1.3 3.6-2.1 8.4 2.2 10.5 2.4-3.1 3-7 3.7-10.8-2-.2-3.9 0-5.9.3z"/><path class="st98" d="M48.3 249.7c-.8-1.9-2.3-3.4-4.4-3.4-.6 2.1-1.1 4.2-1.4 6.4-.6 3.9-1.3 7.8-3.6 10.9l.5.2c8.3 2.7 8.7-11.1 8.6-12.7-.1-.5.1-1.1.3-1.4z"/><path class="st99" d="M60.5 219.2c1-1.1 2.1-1.9 2.8-3.2-1.2-.5-2.4-.9-3.8-1.2-.4-.1-.7-.2-1.1-.2-1.8 2.2-3.1 4.6-4.2 7.2 1 .6 2 1.2 2.7 2.1 1.3-1.7 2.4-3.3 3.6-4.7z"/><path class="st100" d="M60.8 226.2c-.8-.3-1.6-.3-2.4-.4.7 1.7.8 3.6.6 5.5-.2 1.7-.5 3.4-.6 5.1-.1 2 .2 4.1.3 6.1h.7c1.1-2.9 2.5-10.9 1.5-14.2-.3-.5-.3-1.3-.1-2.1z"/><path class="st101" d="M58.1 225.2c1 0 1.9.1 2.8.4.8-3.3 3.2-7.5 4-8.9l-1-.4c-.6 1.2-1.7 2.1-2.7 3.1-1.4 1.5-2.6 3.2-3.8 4.9.3.3.5.6.7.9z"/><path class="st102" d="M58.4 230c.1-3-.7-5.7-3.7-7.4l-.6-.3-2.4 6c-.3.8-.7 1.6-1.1 2.3 2 2.6 5.4.4 7.8-.6z"/><path class="st103" d="M58.2 232.1c.1-.5.1-.9.1-1.4-2.6 1-5.9 3.1-8 .5-.7 1.3-1.6 2.6-2.5 3.8 1.2 2 3.3 3.2 4.7 5 .8 1 1.5 2.1 2.1 3.1 1.1-.3 2.2-.5 3.4-.6-.2-1.9-.4-3.9-.3-5.8.1-1.5.3-3 .5-4.6z"/><path class="st104" d="M59.2 243.2c-1.4 0-2.9.1-4.2.5.7 1.2 1.3 2.4 1.8 3.6 1.8 4.2 3.1 8.5 3.5 13 6.7-2.6 3.3-9.7 1.3-12.6-1.5-2.2-2.1-3.9-2.4-4.5z"/><path class="st105" d="M54.1 243.3c-.7-1.3-1.6-2.5-2.6-3.6-1.4-1.4-3-2.6-4.1-4.3-.1.2-.3.4-.4.5v.2c-1 3.2-2 6.4-2.9 9.6 2.1.1 3.6 1.4 4.5 3.3.7-2.9 2.9-4.7 5.5-5.7z"/><path class="st106" d="M54.5 243.9c-2.7.9-4.9 2.8-5.4 5.8.2.2.5.6.7 1.2.7 2.3 3.6 11.7 10.1 9.6-.4-4.8-1.8-9.6-3.9-13.9-.6-.9-1-1.8-1.5-2.7z"/><path class="st107" d="M74.9 201.7c2.5-2.9 7-4.2 10.8-4.1-.1-.5-.3-.9-.5-1.4l-.5.1c-3.8.4-7.7-.4-16-1.6 1.3 2.9 3.6 5 6.2 7z"/><path class="st108" d="M85.9 204.2c.2-.6.3-1.3.4-1.9.1-1.4-.1-2.8-.5-4.1-3.6-.1-8 1-10.5 3.8 1.4 1 2.9 2 4.4 3.1l4.2 3c.7-1.1 1.4-2.3 1.8-3.5l.2-.4z"/><path class="st109" d="M65.7 210.2c2.5.2 4.7-1.6 6.7-2.8 2-1.1 4-1.9 6.2-2.4-.3-.2-.7-.4-1-.7-2.9-1.9-5.7-4-7.7-6.7 0 .1-.1.1-.2.1-2.9.5-5.2 3-7.3 4.9.6 2.4 1.5 4.7 3 7 0 .2.2.4.3.6z"/><path class="st110" d="M79 217.3c-2.8.1-5.5-.6-8.3-1.3.2.2.4.3.5.5 1.1.9 2.2 1.8 3.2 2.8 1.3.5 2.7 1.1 4 1.7.1-1.2.3-2.4.6-3.7z"/><path class="st111" d="M79.3 205.5c-2.9.5-5.4 1.7-7.9 3.2-1.6 1-3.3 2.1-5.2 2.1 1.1 1.5 2.3 3 3.7 4.4 3 .7 6.1 1.6 9.2 1.5.1 0 .1 0 .2.1.8-2.3 2.1-4.5 3.5-6.6.3-.5.6-1 1-1.5-1.6-1.2-3-2.2-4.5-3.2z"/><path class="st112" d="M69.5 197.2c-.6-.8-1.1-1.7-1.4-2.6-1.4-.2-2.9-.4-4.5-.6-1-.1-1.8-.2-2.7-.3.4 2.8.7 5.7 1.3 8.4 2.1-2.1 4.4-4.4 7.3-4.9z"/><path class="st113" d="M79.3 218.8c2.3.5 4.7-1.1 6.9-1.5 1.9-.4 3.8-.7 5.7-.4-2.1-3.1-4.8-5.6-7.7-7.9-2 3.1-4.3 6.3-4.9 9.8z"/><path class="st114" d="M86.5 224.6c-2.3-1.5-4.9-2.5-7.3-3.8 0 0-.1 0-.1-.1v.6c2.2 1.1 4.1 2.2 5.5 3.5 1 .9 1.7 2 2.3 3.4-.1-1.2-.2-2.4-.4-3.6z"/><path class="st115" d="M89.8 239.5l.1-4.8c-.6-.5-1.1-1-1.6-1.5.4 2.3.5 4.8.5 7.1.3-.3.6-.6 1-.8z"/><path class="st116" d="M90.1 246.4v-.6c-.2-1.8-.3-3.7-.3-5.5l-1.1.9c0 2.4-.1 4.5-.1 6.1v.8c.5-.7 1-1.2 1.5-1.7z"/><path class="st117" d="M89.4 254.8c.1-2.5.8-5.1.8-7.6-.6.6-1.1 1.2-1.6 2-.1 1.4-.2 3.1-.4 5.1.4.1.8.3 1.2.5z"/><path class="st118" d="M87.2 263.7c-.4 4.2-.8 9.2-1.2 15.5 1.8-4.6 2.8-9.4 3.1-14.3 0-.4 0-.8.1-1.1h-2z"/><path class="st119" d="M89.1 263.1l.2-7.6c-.5-.2-.9-.3-1.3-.6-.2 2.3-.5 4.9-.8 8.2h1.9z"/><path class="st120" d="M88.1 232.1c.5.6 1.1 1.2 1.8 1.8v-.4c.1-2.8.2-5.6.6-8.4-1.2 0-2.3 0-3.4-.4.3 1.7.5 3.5.5 5.3.2.6.3 1.4.5 2.1z"/><path class="st121" d="M92.4 217.7c-2.5-.7-5.6-.2-7.9.7-1.7.6-3.5 1.4-5.3 1.1 0 .3 0 .6-.1.9.1-.1.2-.2.3-.1 2.4 1.3 5 2.3 7.3 3.8.1-.1.1-.1.2-.1 1.1.4 2.4.4 3.6.4.2-1 .3-2 .6-3 .4-1.2.8-2.5 1.3-3.7z"/><path class="st122" d="M86.2 197.3c.9-.5 1.8-1.1 2.7-1.5l-1.1-.4c-.6.3-1.3.5-2.1.7.2.4.4.8.5 1.2zm.7 4.3c0 .9-.2 1.8-.4 2.6 3.2-.1 6.4-.6 9-2.6-1.4-1.5-2.4-3.5-2.8-5.4-.8.1-1.7.1-2.5 0 0 0-.1 0-.1.1-1.3.2-2.4 1-3.5 1.7-.1.1-.1.1-.2 0 .3 1.1.6 2.4.5 3.6z"/><path class="st123" d="M96.9 211.3c.4-2.7 0-5.5.5-8.2-.6-.3-1.1-.7-1.5-1.1l-.1.1c-2.7 2.2-6.2 2.8-9.6 2.8-.3.8-.7 1.6-1.1 2.4l-.7 1.2c3.2 2.4 6.1 5.1 8.3 8.6.7-1.5 1.7-2.9 2.9-4.1l1.4-1.4-.1-.3z"/><path class="st124" d="M97.6 202.3c1.9-1.6 3.6-3.5 5.8-4.6.1-2.1.5-4.1.5-6.2-.5-.2-.9-.4-1.3-.7l-.1-.1c-2.9 2.2-5.9 4.7-9.3 5.4.5 2.5 2 5.1 4.3 6.3 0-.1.1-.1.1-.1z"/><path class="st125" d="M107.5 203.7c-.8-2.2-2.3-3.8-4-5.4-2.1 1.1-3.6 2.9-5.4 4.4v.1c-.5 2.8-.2 5.6-.5 8.3 1.3-1.1 2.8-2.1 4.4-2.1.1 0 .2.1.2.2 1.7-1.9 3.5-3.7 5.4-5.4-.1 0-.1-.1-.1-.1z"/><path class="st126" d="M105.9 140.2c-1.6 1.1-3.2 1.2-5.2 1.2 1.4 3.7 2.8 7.4 4 11.2.4 1.2.7 2.5 1.1 3.8 2.1-.8 3.8-3.1 5.3-4.8-3.3-3-2.6-7.9-5.2-11.4z"/><path class="st127" d="M115.8 142.9c-.6-1.6-.9-3.7-2-5.1-.6-.9-1.3-1.6-1.5-2.7l-.1-.2c0 .1-.1.1-.1.1-1.2.4-2 1.5-2.9 2.4l-2.8 2.4c2.6 3.4 1.9 8.3 5.1 11.4 1.8-1.9 3.5-3.8 5-6 0-.1.1-.1.1-.1l-.8-2.2z"/><path class="st128" d="M97.9 116.8c.7.8 1.4 1.6 2.2 2.4.7.7 1.5 1.2 2.2 1.8h.1c1.4-.5 2.9-.6 4.3-1-.8-3-1.6-6.1-2.4-9.2v-.2c-1.2.2-2.4.1-3.6.5-1.1.4-1.9 1.2-2.9 1.8-.7.4-1.4 1-2.2 1.2-.3.1-.7.2-1.1.3 1.3.6 2.4 1.4 3.4 2.4z"/><path class="st129" d="M99.8 126.2c.7-1.6 1.2-3.2 2-4.7-.6-.5-1.2-.8-1.8-1.4-.7-.7-1.3-1.4-1.9-2.1-1.3-1.4-2.6-2.6-4.6-2.9l-.3.3c-.1.1-.1.1-.2.1 0 .2 0 .4.1.6.5 4.6 1.6 8.9 3.1 13.3.2.5.4 1 .5 1.6 1-1.6 2.4-3 3.1-4.8z"/><path class="st130" d="M106.9 120.7c-1.5.4-3 .5-4.4 1.1-.9 1.7-1.5 3.5-2.3 5.2-.8 1.6-2.1 3-3 4.6v.1c.1.3.2.6.3 1h.1c1.1 0 2.1-.5 3.2-.7l3.5-.4c1.9-.4 4-1.2 6-1.2-1.5-3.2-2.5-6.4-3.4-9.7z"/><path class="st131" d="M97.7 104.4c1.8.5 3.6.7 5.4 1l-1.5-7.6c-.2-1.2-.5-2.4-.8-3.6-1 1.2-2.4 2.1-3.7 3-1.9 1.4-3.2 3.1-4.4 5.1 0 0 0 .1-.1.1 1.9.5 3.4 1.5 5.1 2z"/><path class="st132" d="M103.2 106.1c-2-.3-4.2-.5-6.1-1.2-1.6-.6-3.1-1.5-4.7-1.9l-.3.4c.5 3.8.6 7.6.9 11.3.4-.5 1.1-.7 1.7-.9 1.2-.4 2.2-1 3.2-1.7s1.8-1.4 3-1.7c1.1-.3 2.1-.2 3.2-.4-.3-1.2-.6-2.5-.9-3.9zm7.2 24.9c-2.3 0-4.6 1-6.8 1.3-1.3.2-2.6.2-3.9.6-.7.2-1.3.4-2.1.4.9 2.5 1.9 5 2.9 7.5 1.3 0 2.9.1 4.1-.5 1.1-.6 2.1-1.6 3.1-2.4 1.3-1.1 2.6-3 4.3-3.5h.1c-.7-1.1-1.2-2.2-1.7-3.4z"/><path class="st131" d="M111.2 155.1c1.1.2 2.2.4 3.3.7.9.3 1.7 1 2.6 1.2l2.8.6c-.2-1.2-.5-2.5-.8-3.7-.7-2.8-1.5-5.5-2.4-8.2-1.8 2.6-3.9 4.8-6 7.1l-2.1 2.3c.9 0 1.7-.2 2.6 0z"/><path class="st133" d="M115 195.4c-.2-.8-.2-1.7-.5-2.5-.5-1.5-1.6-1.6-3-1.5-2.3.1-4.6.1-6.9.1 0 .1-.1.1-.2.1-.1 2.1-.5 4.2-.5 6.3 1.7 1.6 3.3 3.3 4.1 5.6l1.8-1.8c1.9-1.9 3.7-4 5.3-6.1-.1-.1-.1-.1-.1-.2z"/><path class="st134" d="M113.1 184.4c0-.8 0-1.6-.1-2.4 0-.5-1.2-.6-1.5-.7-1.3-.3-2.7-.7-4-.8-.8 3.4-2.2 6.7-4.3 9.8.3.2.6.4 1 .5h5.6c1.1 0 2.4-.3 3.4-.1l.6.2c-.5-2.1-.7-4.3-.7-6.5z"/><path class="st135" d="M120.1 158.4l-.6-.1c-1.3 2.1-3.4 3.7-5.1 5.5-1.9 1.9-3.9 3.7-6.3 5h-.1c.1 1 .2 1.9.2 2.9 4.5.2 8.9.5 13.4.5-.2-4.7-.7-9.3-1.5-13.8z"/><path class="st136" d="M114.4 162.8c1.5-1.5 3.2-2.9 4.5-4.7-.8-.1-1.5-.3-2.3-.6l-1.8-.9c-2.1-.9-4.2-.9-6.4-.7-.2 0-.2-.1-.3-.2-.7.6-1.4 1.1-2.1 1.4.9 3.6 1.7 7.3 2.1 11 2.4-1.4 4.3-3.3 6.3-5.3z"/><path class="st137" d="M108.3 172.3c0 2.6-.2 5.2-.7 7.6 1.9.1 3.8.8 5.7 1.1 3-.9 5.2-4.5 8.6-4.4 0-1.3-.1-2.5-.1-3.7-4.6-.1-9.1-.4-13.5-.6z"/><path class="st138" d="M113.5 181.6c.2 3.3.1 6.6.9 9.9.8.9.9 2.4 1.1 3.6 2.4-3.1 4.4-6.4 6.3-9.9 0-.1.1-.1.2-.2.1-2.6 0-5.2-.3-7.8-3.1.1-5.3 3.5-8.2 4.4z"/><path class="st139" d="M94.8 236.5c-.1-1.7-.1-3.5 0-5.1.1-2 .2-4.1.5-6.1-1.3.3-2.8.2-4.2 0-.4 3-.6 6.1-.6 9.1 1.3 1 2.8 1.9 4.3 2.1z"/><path class="st140" d="M96.1 242.7c-.7-1.7-1.1-3.6-1.3-5.5-1.5-.2-3-1-4.4-2.1v.9c0 3.3-.1 6.6.3 9.8 1.6-1.3 3.5-2.3 5.4-3.1z"/><path class="st141" d="M96.1 255.1c.8-2.5 2.2-4.8 3.6-7l-1.5-1.8c-.1-.1-.1-.2-.1-.3-.7-.8-1.3-1.7-1.8-2.7-2 .8-4.1 1.9-5.7 3.4.1 2.7-.6 5.5-.7 8.2v.1c2 .5 4.2.5 6.2.1z"/><path class="st142" d="M102.7 263c1.2-1.5 1.7-3.3 2.3-5.1.8-2.1 2-3.9 2.6-6.1-1.8-.1-3.7-.6-5.2-1.4-.9-.5-1.6-1.1-2.3-1.8-1.4 2.2-2.7 4.4-3.5 6.9.4 3.2 3.2 6.4 6.1 7.5z"/><path class="st143" d="M106.1 256.7l-.6 1.5c-.7 1.9-1.2 3.7-2.3 5.3 1 2.5 3.2 4.9 2.3 7.6 2.7-2.5 5.6-4.8 8.5-7.1l.9-.7c-1.5-3.4-5.2-6-8.8-6.6z"/><path class="st144" d="M120.2 258.8c-.5-1.9-.9-4-1.8-5.8-.7-1.3-1.5-2.6-1.9-4-1.9 1.3-4.2 2.3-6.3 2.7-.6.1-1.3.2-1.9.2-.4 1.5-1.1 2.9-1.8 4.3 3.7.7 7.4 3.4 8.9 6.9 1.7-1.3 3.4-2.5 4.9-4-.1-.2-.1-.3-.1-.3z"/><path class="st145" d="M120.9 245.5l-.1-.1c-1 .9-2 1.8-3 2.6-.2.2-.5.4-.8.6.4 1.7 1.4 3 2.1 4.5.8 1.7 1.1 3.6 1.6 5.4 0-.1.1-.1.2-.2 1.6-1.7 3.6-3 5-4.7.1-.1.2-.1.3-.1 1.4-1.7 2.8-3.5 4.2-5.3-3.4 0-6.7-1.2-9.5-2.7z"/><path class="st146" d="M130.8 247.5c1.2-1.5 2.3-3.1 3.4-4.6-.8-3.1-1.6-5.8-4.3-7.7-1.6 2.3-3.3 4.4-5.2 6.4-1.1 1.2-2.2 2.3-3.4 3.3 2.8 1.5 6.2 2.7 9.4 2.5 0 .1 0 .1.1.1z"/><path class="st147" d="M133.7 228.8c-1 2-2.2 4-3.5 5.9 2.7 1.9 3.6 4.6 4.4 7.6l1.5-2c2.4-3.2 4.6-6.8 5.7-10.7-2.7-.6-5.3-1.4-8.1-.8z"/><path class="st148" d="M141.9 229c.2-1.1.4-2.2.5-3.3.2-5.1-1-10.3-3.3-14.9-.1 5.3-2.2 10.7-4.3 15.5l-.8 1.8c2.7-.5 5.3.3 7.9.9z"/><path class="st149" d="M93.3 263c1.6-.9 3.6-2.1 5.5-2-1.4-1.5-2.4-3.3-2.6-5.2-2 .3-4.2.4-6.2-.2-.1 3.1-.1 6.3-.3 9.4l-.1 1.2c.7-1.4 2.4-2.5 3.7-3.2z"/><path class="st150" d="M94.3 271.5c1-2.6.8-5.8.4-8.6-.3.2-.7.4-1 .5-1.5.9-3.7 2.1-4.2 3.9-.1.2-.2.2-.3.2-.3 2.3-.7 4.5-1.2 6.7 2.3-.3 5.4-.3 6.3-2.7z"/><path class="st151" d="M95.8 282.8c1.4-2.3 3-4.6 4.7-6.6-2.1-1-5.1-1.1-6.6-3.1-1.5 1.4-3.8 1.4-5.8 1.8H88l-.2.8c1.3 3.7 3 7.8 6.4 10 .5-.9.9-1.8 1.4-2.6 0-.2.1-.3.2-.3z"/><path class="st152" d="M86.6 289.2c.3-2.9 1.8-5.3 2.9-7.9v-.1c-.8-1.5-1.5-3.1-2-4.6-.5 1.5-1 3-1.6 4.4 0 .3 0 .6-.1.9-.1 2.6-.2 5-.2 7.3.3 0 .6.1 1 0z"/><path class="st153" d="M90.2 296c1-3.3 2.2-6.6 3.7-9.7-1.7-1.1-3-2.7-4-4.4-1 2.6-2.6 5-2.7 7.9.6 2.1 1.7 4.2 3 6.2z"/><path class="st154" d="M89 301.8v-.2c-.1-.1-.1-.2-.1-.3 0-.2.1-.4.1-.5v-.4l.1-.3c.2-1.1.5-2.3.8-3.4-.1 0-.1 0-.1-.1-1.3-2.1-2.5-4.3-3.2-6.6-.3 0-.7 0-1-.1 0 3.1.1 6.1.4 9 .8 1.1 1.8 2.1 3 2.9z"/><path class="st155" d="M88.9 302.5c-1-.7-2-1.5-2.8-2.5.4 3.6 1.2 7.1 2.3 10.5 0-2.5.4-5.1.5-7.6 0-.1-.1-.3 0-.4z"/><path class="st156" d="M104.8 271.4c1.3-2.7-1-5.1-2-7.5-.2 0-.3-.2-.3-.4-1.1-.4-2.2-1.1-3.1-2 0 .1-.1.1-.2.1-1.3-.1-2.6.4-3.8 1 .4 2.8.9 7.1-.7 9.6l-.3.5c1.4 1.9 4.5 2 6.5 2.9.1 0 .1.1.1.1.4-.5.9-1 1.3-1.4.9-.9 1.7-1.7 2.6-2.5-.1-.1-.2-.2-.1-.4z"/><path class="st157" d="M95.3 224.6c.5-3.4 1.3-6.8 2.9-9.7 1-1.9 2.2-3.5 3.6-5.1-2.5.1-5.2 2.9-6.7 4.7-2.2 2.8-3.3 6.1-3.9 9.6 0 .2-.1.4-.1.5 1.4.2 2.9.4 4.2 0z"/><path class="st158" d="M109.2 240.9c-.6-1.3-1.1-2.7-1.4-4.1-2.9 3.1-6 6-8.9 9 .1.1.1.2 0 .4 1.2 1.6 2.4 3.2 4.4 3.9 1.7.6 3.4 1 5.2 1l.7-10.2z"/><path class="st159" d="M123.6 241.8c-.5-.6-1.1-1.1-1.5-1.7-4.1.4-8.2 1.2-12.3 1.2-.1 3.3-.7 6.5-.7 9.7.9-.1 1.7-.2 2.6-.5 4.6-1.6 8.5-5.1 11.9-8.7z"/><path class="st160" d="M121 236.1l-.1-3c-1.1-.7-2.2-1.6-3.5-2.2-1.1-.5-2-1.1-2.7-2-.9 1-1.7 2-2.6 3.1 0 .1-.1.2-.2.2-1.2 1.4-2.4 2.8-3.6 4.1.4 1.5.8 2.9 1.5 4.3 3.9 0 7.7-.7 11.6-1.2-.1-1.1-.4-2.2-.4-3.3z"/><path class="st161" d="M121.1 232.4l3-3.7c.7-.8 1.6-1.5 2.4-2.4-.7-1.5-1.5-3-2.4-4.3-.6-1-1.2-1.9-1.5-3-1.8 2.7-3.8 5.2-5.8 7.6-.5.7-1.1 1.3-1.6 1.9.8.9 1.9 1.4 2.9 2 1 .6 1.9 1.3 3 1.9z"/><path class="st162" d="M129.7 227.9c-.9-.4-1.7-.9-2.7-1.2-.1.1-.1.2-.2.2-.9 1-2 1.9-2.8 3-.8 1.1-1.6 2.2-2.5 3.2l.1 3.1c.1 1.1.3 2.2.4 3.4h.4s.1 0 .1.1c.4.7 1 1.2 1.5 1.8 0 0 0 .1.1.1.5-.5.9-1 1.3-1.5 1.5-1.7 2.9-3.5 4.2-5.3 0 0 0-.1.1-.1 1.2-1.8 2.4-3.7 3.4-5.6-1.2-.6-2.3-.8-3.4-1.2z"/><path class="st163" d="M138.6 209.7c-.1-.2-.3-.5-.4-.8l-.3-.5c-3.4 1-7 .9-10.4 1.6-.8 2-1.8 3.8-2.9 5.7l2.7.9c1.2.3 2.4.7 3.5 1 2 .6 4.1.9 6.1 1.7 1-3.1 1.8-6.3 1.7-9.6z"/><path class="st59" d="M137.6 207.9c-2.2-3.9-4-8.1-5.4-12.4-.9 3.5-1.9 6.9-3.1 10.1v.1c-.3 1.2-.8 2.4-1.3 3.6 3.2-.6 6.6-.5 9.8-1.4z"/><path class="st164" d="M130.1 218.2c-1.9-.5-3.8-1.4-5.8-1.8h-.1c-.4.7-.9 1.4-1.3 2 0 0 .1.1.1.2.3 1.4 1.2 2.5 1.9 3.7l2 3.6 2.9 1.3c1.1.3 2.2.6 3.3 1l.2.1c.5-.9.9-1.9 1.3-2.9.7-1.8 1.5-3.6 2.1-5.5-2.2-.7-4.4-1.1-6.6-1.7z"/><path class="st165" d="M35.5 106.8c.3 2.1.6 4.3 1 6.4.5.1.9-.1 1.4-.4v-.4c1.1-6.7 1.8-13-3.3-14.4l.9 8.2c.1.1.2.5 0 .6z"/><path class="st166" d="M51.9 104.9c-.1-.1-.1-.1-.2-.1-.5.5-1.1 1-1.7 1.6-1 1-1.8 2.3-2.6 3.5-1.4 2.1-3 4.2-3.8 6.6.8.6 1.7 1.1 2.6 1.6l1.8 1c.1-.2.3-.4.5-.6 2.7-3.2 8.6-9.4 3.4-13.6z"/><path class="st167" d="M43.1 116c.9-2.4 2.5-4.5 3.9-6.6.7-1.1 1.4-2.2 2.3-3.2l1.9-1.8c-5-3-9.8 5.2-11.5 8.3l-.2.4c1.2 1 2.4 2 3.6 2.9z"/><path class="st138" d="M45.7 118.4c-2.3-1.4-4.5-3.1-6.5-4.9-.6.8-1 .5-1.2-.1-.5.2-.9.4-1.4.4.5 2.7 1.1 6.2 2.5 8.9l.1-.1c.9 0 1.7-.3 2.7-.2.6 0 1.2.2 1.8.3l.5.1c.2-1.5 1.1-2.8 1.5-4.4z"/><path class="st168" d="M47.6 119.5c-.5-.2-1-.5-1.4-.8-.4 1.4-1.3 2.7-1.5 4.3.7.2 1.4.4 2.1.4-.2-.6-.4-2 .8-3.9z"/><path class="st169" d="M46.3 127.4c1.3-1.1 2.4-1.9 3.9-2.5l.9-.4c-1.2-.2-2.3-.4-3-.5-1.1.3-2.1 0-3.2-.2-.8-.2-1.7-.4-2.5-.5-1.1-.2-2 .1-3 .1.6.9 1.3 1.7 2.2 2.3 1.4 1 3 1.5 4.6 2 0-.2 0-.3.1-.3z"/><path class="st170" d="M59 128.3c-.4-.6-.6-1.2-.7-1.8-1.8-.7-4-1.3-6-1.8-.6.3-1.2.6-1.8.8-1.5.5-2.5 1.3-3.6 2.3l1.8.4c2.4.5 5.1 1.1 7.6.9.9-.2 1.8-.4 2.7-.8z"/><path class="st171" d="M66.2 119.5c.8-.1 1.6-.1 2.4-.1.3-1.3.5-2.6.6-3.9-.8 1.4-1.9 2.7-3 4z"/><path class="st172" d="M65.6 120.2c-3.1 3.5-6.3 6.2-6.7 6.5.1.4.3.8.6 1.2v.2c2.8-1.2 5.2-3.4 7.9-4.9.2-.1.3.1.3.3.3-1.2.6-2.3.8-3.5-.9 0-1.9.1-2.9.2z"/><path class="st173" d="M48.7 138.5c-1.4-1-2.3-2.4-3-3.8-1.4 1.1-2.7 2.9-3 4.7-.1 1.2-.1 2.2 0 3.3l.6.6c1.8 1.6 3.5 2.8 5.2 3.6-1-2.7-.8-5.6.2-8.4z"/><path class="st174" d="M27.4 135.4c-.1 0-.3-.1-.3-.3-.2-.1-.4-.3-.5-.4-2.9 1.4-4.8 3.8-6.9 6.1-1.4 1.6-3 2.9-4.6 4.3l.4.4c6.2 5.9 12.7-5.2 14.3-6.5l.2-.2c-.7-1.3-1.5-2.5-2.6-3.4z"/><path class="st175" d="M20.7 138.7c1.5-1.7 3.3-3.4 5.3-4.4-1.5-1.1-3.2-2.1-5-2.3-2.6 1.9-10.4 7.3-6.3 12.5 2.1-1.8 4.1-3.7 6-5.8z"/><path class="st176" d="M15.6 128.3c.5-1 1.2-1.9 1.5-2.9-3.4-.4-6.8-.8-10.3-1.1-.3 5 3.8 6.2 7.4 6.4.5-.7 1-1.6 1.4-2.4z"/><path class="st177" d="M21.3 125.1c0-1.2.5-2.6 0-3.8-.4.1-1 .2-1.4.1-1-.1-12-6.1-13.1 2.1 2.1.2 4.2.7 6.4.8 1.9.1 3.6.2 5.5.5.9.2 1.7.3 2.6.3z"/><path class="st178" d="M34.4 132.4c-.5-1.2-1-2.3-1.6-3.4-.3-.6-.6-1.1-1.1-1.6-.3-.3-.5-.5-.6-.8l-2.4-.1c.1 1.2-.3 2.2-.6 3.3-.4 1.7-.4 3.4-.5 5.1 1.1 1.1 2 2.3 2.7 3.5.8-.7 2-1.4 4-1l.1-5z"/><path class="st179" d="M25.8 116.6c-1.1-1.3-2.1-2.5-3.5-3.5-3.1-2.3-5.9-5.2-9.1-7.4-5.4 5.4 5.8 12.6 7.9 14.1.4.3.7.5.8.8.9-1.6 2.4-2.8 3.9-4z"/><path class="st180" d="M27 117l3.8 3c0-2.5.2-5.1.1-7.6s-.4-5-.9-7.5c-.8.5-1.9.9-2.9 1.1.3 2.2.9 4.2 1.3 5.1.9 2.4.5 3.4-1.1.8-.5-.8-1.5-2.2-2.7-3.6-1.4.6-2.6 1.8-3.7 2.9l2 1.6c1.7 1.2 2.7 2.8 4.1 4.2z"/><path class="st181" d="M29.9 104.3c-.3-1.9-.7-3.7-.9-5.6-1.9 1.4-2.2 4.1-1.9 6.7.9-.2 2-.6 2.8-1.1z"/><path class="st182" d="M33.2 107.1c.5-.2 1.2-.3 1.7-.6-.3-2.8-.6-5.7-1-8.6-.6-.1-1.2-.2-1.9-.1-1 0-1.9.2-2.6.6.5 3.2 1.2 6.4 1.6 9.7.9-.2 1.4-.7 2.2-1z"/><path class="st183" d="M31.3 117.1c1.8 0 3.6.3 5.4.7l-.6-3c-.5-2.5-.9-5-1.2-7.5-.5.3-1.1.4-1.6.6-.8.3-1.4.8-2.2.9.1 1 .2 2 .3 3.1.1 1.6 0 3.4-.1 5.2z"/><path class="st184" d="M36.9 118.4c-1.8-.4-3.7-.7-5.6-.7-.1 2.9-.1 5.9.7 8.7 0 .2 0 .3-.1.4l.6.6c.2.3.4.6.5.9.2-1 1-1.9 1.7-2.6 1.1-1.1 2.4-2.1 3.9-2.5-.8-1.5-1.3-3.2-1.7-4.8z"/><path class="st185" d="M30.8 120.9c-1.3-1.3-3-2.1-4.2-3.4l-.5-.5c0 .1 0 .1-.1.1-1.5 1.3-3 2.5-4.1 4.1 0 0 0 .1-.1.1.3 1.2 0 2.5 0 3.8 1.1 0 2.3 0 3.4.2 2 .3 4 .5 6.1.5-.3-1.5-.5-3.2-.5-4.9z"/><path class="st177" d="M20.4 110.8c1.1-1.1 2.2-2.3 3.7-3-2.8-3-6.8-5.7-10.5-2.5 2.4 1.6 4.6 3.6 6.8 5.5z"/><path class="st186" d="M44.2 127.7c-1.1-.4-2.2-.9-3.2-1.7-.8-.6-1.5-1.4-2.1-2.3-1.3.4-2.5 1.2-3.5 2.2-.8.7-1.9 1.9-1.9 3v.2c.6 1 1 2.1 1.4 3.1 0 0 .1.1.1.2v.1c.3.5 1 .9 1.5 1.1 0-.1.1-.1.1-.1 1.5-.4 2.5-1.5 3.9-2 1.3-.5 2.6-.8 4-1-.1-1-.2-1.9-.3-2.8z"/><path class="st187" d="M44.7 131.1c-1.5.1-3 .5-4.3 1.2-1.2.6-2.2 1.4-3.5 1.8.3 1.7.8 3.4 1.3 5.1 1.1.7 2.4 1.7 3.9 3-.1-1.2-.2-2.4.2-3.5.6-1.8 1.6-3.3 3.1-4.5-.3-1.1-.5-2.1-.7-3.1z"/><path class="st188" d="M36.3 134.1c-.5-.2-.9-.5-1.3-.8 0 1.4-.1 2.8 0 4.2.7.2 1.5.6 2.4 1.1-.5-1.4-.9-2.9-1.1-4.5z"/><path class="st189" d="M27.4 130.5c.2-1.4.8-2.7.7-4.2l-2.4-.3c-2-.3-4-.1-6-.3l-2.1-.3c-.4 1.4-1.2 2.6-1.9 3.9-.3.5-.6 1-.9 1.4 1.5.1 2.8-.1 3.6-.1 2.2-.1 2.8.4 3 .7 2.1.3 4 1.4 5.7 2.9.1-1.2.1-2.5.3-3.7z"/><path class="st190" d="M55.2 129.7c-2.7-.2-5.3-.5-7.9-1.2-.9-.2-1.7-.4-2.6-.7.4 3.7.9 7.6 4.1 10 1.4-3.4 4-6.4 7.1-8.2-.2.1-.4.1-.7.1z"/><path class="st191" d="M67.5 123.9c-2.8 1.5-5.4 4-8.4 5.2 0 .1-.1.1-.2.1-1 .3-2 .7-3 1.3 3.3 1.5 5.4 4.8 6.6 8.1 2.5-3.2 3.4-7.4 4.3-11.3.3-1.2.5-2.4.7-3.4.1-.1.1 0 0 0z"/><path class="st138" d="M55.4 130.9c-3.4 2.2-6.2 6.2-6.8 10.2 0 0 .1 0 .1.1.9.6 2 .6 3.1.6 1.3.1 2.5.1 3.8 0 1.4-.2 2.9-.5 4.1-1.2.8-.5 1.5-1 2.4-1.3 0-.1 0-.1.1-.2-1.2-3.4-3.4-6.9-6.8-8.2z"/><path class="st192" d="M60.6 145.2c.3-1.5.3-3 .1-4.6-.8.4-1.5.9-2.4 1.1-1.3.4-2.5.7-3.9.7-1.7 0-4.5.4-6-.7-.2 1.9.1 3.8 1 5.5 3.9 1.6 7.5 1.3 10.4.5.3-.8.7-1.7.8-2.5z"/><path class="st188" d="M64.9 139c-.1 0-.2-.1-.2-.2-.8.5-1.7.7-2.5 1h-.1l-.8.4c.2 1.4.3 3 0 4.5-.2.9-.5 1.8-.8 2.7 2.3-.7 4.2-1.8 5.4-2.5.6-1 1.3-2 2.1-2.7.8-.7 1.8-1.1 2.6-1.7-2 0-3.7-1.3-5.7-1.5z"/><path class="st193" d="M72.5 126.4c-.4 1.1-.8 2.1-1.3 3.2-1.1 2.4-2.3 4.6-3.9 6.6-.6.8-1.2 1.6-2 2.2 2 .3 3.7 1.7 5.8 1.7.1 0 .2.1.2.2.4-.3.9-.7 1.2-1.2 1.4-1.9 2.1-4.2 2-6.5 0-2.5-.8-4.2-2-6.2z"/><path class="st194" d="M75.6 135.9c-.3-.2-.5-.3-.8-.6-.2.8-.4 1.6-.8 2.4-.8 1.6-1.9 3.2-3.6 4-1.3.6-2.3 1.2-3.1 2.3l-.2.2c1.6-.9 4-2.3 6.6-3.7.6-1.5 1.4-3 1.9-4.6z"/><path class="st195" d="M86.6 133c-2.2-.9-4.2.6-6.3 1.3-1.4.5-2.8 1.5-4.2 1.7-.4 1.4-1.1 2.7-1.6 4.1 5.4-3 11.2-6.2 11.2-6.2.5.1.9.4 1.3.7-.2-.5-.3-1-.4-1.6z"/><path class="st59" d="M78.6 125.7c1.3-1.5 2.9-2.8 4.4-4-.5-.4-.9-.9-1.3-1.5-1.5-2.4-2.6-5.1-3.8-7.6-.2 0-.5.1-.7.2-1.4 4.4-2.8 8.8-4.4 13.1l.1.1c.9 1.5 1.7 2.9 2.1 4.6 1.6-1.4 2.3-3.3 3.6-4.9z"/><path class="st196" d="M86.4 126.6c.1-1 .1-2.1.2-3.2-1.1-.5-2.1-.8-3-1.4-1.9 1.6-3.9 3.1-5.3 5.2-.9 1.4-1.8 3-3.2 3.9 0 .2 0 .5.1.7 0 .9 0 1.8-.2 2.7.1 0 .1.1.1.2.1.3.6.5.9.7 1.1-.2 2-.9 3-1.3 1.1-.4 2.2-.8 3.2-1.3 1.5-.7 2.8-1.1 4.3-.5-.2-1.9-.2-3.8-.1-5.7z"/><path class="st197" d="M78.5 112.3c1 2.2 2 4.5 3.2 6.6.6 1.1 1.4 2.3 2.5 2.9l2.4 1c.2-2.8.5-5.6 1-8.4.2-1.5.5-3 1-4.5-3.5.2-6.8 1.4-10.1 2.4z"/><path class="st198" d="M128.9 118.2l3.1-3.5c-1.4-1-2.8-2.1-4.3-3.1-2.5-1.7-5-3.5-7-5.8.2 1.3.5 2.5.8 3.8.9 4.2 2 8.3 3.7 12.2 1.3-1.2 2.5-2.4 3.7-3.6z"/><path class="st199" d="M136.6 118.1c-1.4-1-2.7-2-4.1-2.9-1.1 1.2-2.1 2.6-3.3 3.7-1.3 1.2-2.5 2.4-3.8 3.7v.3c.2 1.2.7 2.4 1.1 3.6 2.3 1.7 5.1 2.4 7.7 3.5.1-4.3-.1-8.5 2.4-11.9z"/><path class="st200" d="M135.4 122.1c-.6 2.5-.5 5.3-.5 7.9l.6.3c2 1 4 1.8 6.1 2.5.1 0 .1 0 .2.1l3.8 1.2c-3.2-4.1-6.8-8-10.2-12z"/><path class="st201" d="M146.2 124.7v-.1c-2.9-2.1-5.9-3.9-8.9-6-.1 0-.2-.1-.2-.2-.7 1-1.2 2-1.5 3 3.7 4.2 7.4 8.3 10.8 12.7 0-3.1.2-6.3-.2-9.4z"/><path class="st202" d="M155.6 133.7c1.6 2.2 2.8 4.7 3.9 7.2.6.5 1.1.9 1.6 1.4-2-3.8-4.2-7.6-6-10.7-1.1-1.1-2.3-2-3.5-2.9 1.1 1.8 2.7 3.2 4 5z"/><path class="st203" d="M154.9 133.7c-1.4-1.7-3.1-3.4-4-5.5v-.3l-3.1-2.4-.9-.6c.3 3.2.2 6.4.1 9.6 3 .9 5.9 2 8.6 3.5 1.1.6 2 1.3 3 2-1.1-2.2-2.2-4.4-3.7-6.3z"/><path class="st204" d="M146 146.9c0 .1 0 .2.1.3 3.6-1.7 7.3-5.3 7.3-9.5-3.1-1.4-6.4-2.4-9.6-3.4-.6-.2-1.1-.4-1.7-.5.6 2.1 1.6 4 2.2 6 .5 1.8 1 3.7 1.4 5.5.1.1.1.2.1.3 0 .4.1.8.2 1.3z"/><path class="st205" d="M160 152.5l.7.3c-.3-3.8-1.1-7.5-1.5-11.3v-.3c-1.6-1.3-3.3-2.5-5.2-3.4-.1 1.8-.7 3.5-1.8 4.9 3.6 2.2 5.8 6.3 7.8 9.8z"/><path class="st206" d="M151.8 143.4c-1.5 1.9-3.5 3.5-5.6 4.4.3 1.7.6 3.4.8 5.1 2.5-.7 5.2-1 7.7-1 1.4 0 3 .1 4.4.4-1.7-3.3-3.9-7-7.3-8.9z"/><path class="st202" d="M164.4 150.3l3.7 9.9c-.8-3.2-1.8-6.3-2.9-9.4-.8-2.1-1.9-4.6-3.2-7.1l-1.4-1.2c1.8 2.3 2.8 5.1 3.8 7.8z"/><path class="st207" d="M164.5 156.2c1.1 1.2 2.1 2.6 3 4-.9-2.3-1.8-4.7-2.7-7.1.1 1.1-.1 2.1-.3 3.1z"/><path class="st173" d="M164.1 155.7c.2-1.1.3-2.1.2-3.2 0-.2.1-.3.2-.3l-.3-.8c-1.1-3-2.1-6.3-4.3-8.7.5 3.5 1.2 7 1.4 10.5v.1l.3.2c.8.6 1.7 1.4 2.5 2.2z"/><path class="st208" d="M147.9 168c3.5-.8 6.2-3.2 8.9-5.4-2.3-3.3-4.7-6.5-7.4-9.5v-.1c-.7.1-1.5.3-2.2.5.3 2.5.5 5 .6 7.6l.1 6.9z"/><path class="st209" d="M147.9 172.4c3.5.1 6.4 1.3 9.4 3 .6-2.7 2.1-5.6 1.7-8.4-.1-.4.4-.4.5-.2l.3.1-2.6-3.8c-2.8 2.4-5.6 4.7-9.2 5.5 0 1.3-.1 2.6-.1 3.8z"/><path class="st210" d="M166.1 181.9c-.2 2.8-.7 5.4-1.5 8.1l1.8-1.3c.9-3 1.7-6.1 2.2-9.3-1-2.4-2-5.1-3.5-7.4.5 3.3 1.2 6.5 1 9.9z"/><path class="st211" d="M156.4 194.6c0-.1.1-.2.2-.2-.1-.3-.1-.7-.1-1-.1-.8-.1-1.6-.1-2.4-3 1.1-5.9 2.2-8.8 3.5.7 3.1 2 6.2 3 9.2.3 1 .7 1.9 1 2.8 2.1-3.7 3.6-7.8 4.8-11.9z"/><path class="st212" d="M159.6 198.8c-.3 0-.6-.1-1-.4-1-.7-1.6-1.9-1.8-3.1-1.2 4.1-2.7 8.2-4.9 11.9.5 1.1 1 2.1 1.5 3.1 1.5-4.1 4.1-7.7 6.2-11.5z"/><path class="st213" d="M164.7 190.7c-.1.1-.2.1-.3 0-.1.2-.1.4-.2.7-.1.3-.3 1-.5 1.7 0 0 0 .1.1.1.1.2-.1.5-.3.5-.7 2-1.8 4.4-3.1 5-2.2 4.1-5 7.9-6.6 12.3.6 1.1 1.3 2.1 2.1 3.1.5-1.8 1.7-4.8 4.1-9.7 2.4-4.9 4.5-9.8 6.1-14.8l-1.4 1.1z"/><path class="st214" d="M156.3 190.3v-2.8l-.1-.1c-2.5-3.3-6.6-5.2-8.6-8.9-.2 4.3-.5 8.5-.6 12.8 0 .9.1 1.7.3 2.6 3-1.4 6-2.5 9-3.6z"/><path class="st215" d="M157 176c-2.9-1.7-5.7-2.9-9.1-3l-.1 2.7-.1 1.6.1.1c1.7 4 5.9 5.8 8.5 9.1 0-3.4.2-6.9.8-10.3 0 0-.1-.1-.1-.2z"/><path class="st216" d="M159.4 153.1c-1.7-.5-3.7-.6-5.4-.5-1.3.1-2.6.2-3.9.4 3.5 3.9 6.5 8.2 9.5 12.6.8-4.2.2-8.4-.2-12.5z"/><path class="st217" d="M165.8 159s0-.1.1-.1c-1.3-1.9-2.9-3.8-4.8-5-.3-.2-.7-.4-1.1-.5.5 4.2 1 8.4.1 12.5 0 .1-.1.2-.1.2l.7 1.1s0 .1.1.1l.9.4c.9-3.1 3.1-5.6 4.1-8.7z"/><path class="st218" d="M165.7 160.7c-1.1 2.5-2.8 4.7-3.7 7.3 2.2 1.4 3.6 3.6 4.8 6-.1-4.5-.7-8.9-1.1-13.3z"/><path class="st219" d="M169.3 170.2c0-2.1-.2-4-.5-5.9-.6-1.3-1.2-2.6-2-3.8l-.7-1.1c0 .1 0 .1-.1.2v.2c.3 3.9.9 7.8 1.1 11.7.9-.4 1.6-.9 2.2-1.3z"/><path class="st220" d="M167.4 172.2l.1 3c.5 1.1.9 2.1 1.3 3.1l.3-2.7c.2-1.6.2-3.2.3-4.7-.7.5-1.4.9-2 1.3z"/><path class="st221" d="M161.2 189.5c-.1.1-.3 0-.4-.2l-4 1.5c0 2 .1 4.5 1.2 6.1 2 3 3.9-.8 5-3.8-.6-1.2-1.1-2.5-1.8-3.6z"/><path class="st222" d="M164.4 171.1c-1.2-1.7-2.8-3-4.9-3.6.1 2.1-.7 4.2-1.2 6.1-.2.7-.4 1.5-.5 2.2 1.3.5 2.8.7 4.2.6.1-.1.3-.1.4 0 1-.1 1.9-.4 2.8-.7-.3-1.5-.6-3-.8-4.6z"/><path class="st223" d="M161.1 188.5c2-3.2.9-7.7.8-11.4-1.4.1-2.9-.1-4.2-.6-.4 2.1-.6 4.2-.7 6.4-.1 2.4-.2 4.8-.2 7.2 1.5-.5 2.9-1 4.3-1.6z"/><path class="st224" d="M165.3 176.4c-.9.4-1.8.6-2.8.7.1 3.8 1.2 8.4-.9 11.9.7 1.1 1.1 2.3 1.7 3.4.3-.9.5-1.6.6-2 1-3.4 1.7-6.9 1.7-10.4 0-1.2-.1-2.4-.3-3.6z"/><path class="st225" d="M111.9 286.2h.4c1.1-4.4 2.7-9.2 4.5-12.6 2.3-4.4 5.4-9.9 7.8-14-4.8 5.7-7.7 12.7-11.1 19.4v.2c-.1 2.4-.9 4.7-1.6 7z"/><path class="st226" d="M110.1 301.1l.1 4.2 2.5 2.4c-1.4-5.3-1.7-10.9-1.6-14 0-1.8.4-4.2 1-6.8h-.5c-.3 1-.6 2-.8 3.1-.6 3.5-1.3 7.3-.7 10.9.1.1.1.2 0 .2z"/><path class="st227" d="M110.3 306.3c.3 3.6.8 7.1 1.9 10.5 1.1-.7 2.1-1.5 2.9-2.4-.9-1.7-1.6-3.6-2.1-5.5-.8-.9-1.8-1.8-2.7-2.6z"/><path class="st228" d="M116.8 324.8c1.5.3 3-.2 4.4-.6-.1-.1-.2-.2-.2-.3-2.2-2.7-4.6-5.5-5.9-8.8-.8.8-1.7 1.5-2.7 2.1 1 2.7 2.3 5.3 4.2 7.5 0 .2.1.1.2.1z"/><path class="st229" d="M128 329.1c-2.4-.7-4.6-2.4-6.2-4.3-1.5.4-3 .9-4.6.7.8 1.1 1.9 1.6 2.9 2.5l2.6 2.8c2.2 2 5 3.5 7.6 4.8l.1.1c.1 0 .2 0 .2.1l.9.4c-.8-2.6-2.3-4.8-3.5-7.1z"/><path class="st230" d="M143.4 335.5c-2.6-.5-5-1.2-7.1-2.1-2.7-1.1-5.2-2.6-7.5-4.2h-.1c1.3 2.3 2.7 4.6 3.4 7.2 3.2 1.2 6.7 2.1 10.1 2.6.3-1.2.8-2.3 1.2-3.5z"/><path class="st231" d="M153.5 339.7c.3-1.3.9-2.4 1.6-3.4-3.7.2-7.6 0-11.2-.6-.4 1.2-.9 2.3-1.1 3.5l1.3.2h.2l1.5.2c2.5.2 5.2.4 7.7.1z"/><path class="st232" d="M171.2 332c-1 .5-2.1 1-3.1 1.4-3.3 1.5-7.6 2.5-12.2 2.8-.8 1-1.5 2.2-1.8 3.4.1 0 .2 0 .3-.1 2.7-.6 5.5-1.4 8.2-2.1 3.5-.9 7.1-1.9 10.4-3.3-.6-.6-1.3-1.3-1.8-2.1z"/><path class="st233" d="M179.9 327.3c-2.7 1.6-5.5 3.1-8.2 4.4.5.8 1.2 1.4 1.9 2.1 1.8-.8 3.5-1.7 5.2-2.7 1.4-.8 2.8-1.7 4.2-2.7-1.1 0-2.1-.5-3.1-1.1z"/><path class="st234" d="M189.2 319.6c-2.5 2.8-5.5 5.2-8.7 7.3.9.5 1.9.9 2.9 1 .1 0 .2.1.2.2 2.5-1.7 4.9-3.7 6.6-6.1l-1-2.4z"/><path class="st235" d="M194.2 312.3c-.8 1.4-1.7 2.8-2.7 4.2-.6.9-1.3 1.8-2 2.6.2.8.6 1.5 1 2.3l.3-.4c0-.1.1-.1.1-.1 1.3-2.1 2.8-4 4.2-5.9 0-.2.1-.4.3-.4.6-.8 1.2-1.6 1.7-2.5-.9-.1-1.9 0-2.9.2z"/><path class="st236" d="M199.1 303c-1.2 2.9-2.7 5.7-4.4 8.5.9-.1 1.8-.2 2.8-.1 0 0 .1 0 .1.1l1.2-2.1c1.2-2.2 2.1-4.5 2.8-6.9-.8.2-1.6.4-2.5.5z"/><path class="st237" d="M202.4 292c-.7 3.8-1.7 7.1-3 10.2l2.4-.4c.5-1.7 1-3.5 1.5-5.3-.1-.1 0-.3.1-.4l.1-.4 1.3-5.1c-.9.3-1.8.7-2.4 1.4z"/><path class="st238" d="M202.8 287.7c0 1.1-.1 2.3-.3 3.3.7-.5 1.6-.8 2.5-1 .4-1.6.7-3.3 1-4.9-1.3.4-2.2 1.5-3.2 2.6z"/><path class="st239" d="M206.3 282.2c0-.3 0-.6.1-.8.1-2.6.2-5.4-.2-8-.2-1.8-.7-3.5-1-5.2-3.6 3.2-2.3 11.4-2.4 18.7.9-1 1.9-2 3.2-2.4h.1l.2-1.5c-.3-.3-.2-.8 0-.8z"/><path class="st240" d="M109.6 303.7l-.1-2.9c0-.1 0-.1.1-.2-.1-.4-.1-.8-.1-1.2-.1 0-.2-.1-.2-.2-1-2.6-2.8-4.8-3.7-7.4-.9 1.3-1.8 2.7-2.6 4.1.1.2 0 .4-.2.5-1 1.8-1.9 3.6-2.7 5.5 3.2-.2 6.4.4 9.5 1.8z"/><path class="st156" d="M104.5 314.9c.4-4 .4-8 .4-12.1-1.7-.3-3.4-.4-5.2-.3-.8 2.4-1.3 4.9-1.3 7.6 0 .2-.1.3-.2.3.1 1.7.4 3.3.9 4.9.1.1.1.2.1.3l.9 2.8c1.1-1.3 2.6-3 4.4-3.5z"/><path class="st241" d="M109.7 305.4c0-.3 0-.7-.1-1-1.3-.6-2.7-1.1-4.1-1.4 0 4 0 8-.4 12 2.6.4 4.8 1.8 7 3-1.5-3.9-2.1-8.1-2.4-12.4-.1 0-.1-.1 0-.2z"/><path class="st242" d="M114.7 331.9c.5-2.1 1.8-4 1.8-6.2-.5-.7-1.1-1.3-1.5-2-3.7 1.2-6.8 3.6-10.4 5 .5.8 1 1.5 1.6 2.2l3.7 3.7c1.1 1.2 2.2 2.4 3.4 3.5.2.2.4.4.6.5.1-2.2.3-4.5.8-6.7z"/><path class="st243" d="M118.1 341.3c2-.4 3.5-2.5 4.7-4 .9-1.2 1.7-2.4 2.7-3.5-1.2-.7-2.3-1.5-3.2-2.5-1.2-1.2-2.2-2.6-3.6-3.6-.6-.4-1.2-.9-1.6-1.4-.2 1.7-.9 3.2-1.5 4.9-.9 2.5-1 5.2-1 7.9 1.1.9 2.2 1.6 3.3 2.4 0-.1.1-.2.2-.2z"/><path class="st244" d="M130.1 336.3c-.2-.1-.4-.1-.5-.2-.1 0-.1-.1-.1-.2-1.1-.5-2.3-1.1-3.4-1.8-2.2 2.4-4.1 6.8-7.5 7.7v.1c1.1.7 2.3 1.3 3.5 1.9 3.5 1.8 7.2 3.4 11 4.5-.3-4.1-2.6-7.8-3-12z"/><path class="st245" d="M114.6 323.2c-.9-1.4-1.6-2.8-2.2-4.3h-.2c-2.3-1.3-4.6-2.8-7.2-3.2 0 .4-.5.3-.5 0-1.7.5-3.1 2.2-4.2 3.5l.8 2.1c1 2.3 1.9 4.8 3.2 7 3.6-1.5 6.6-4 10.3-5.1z"/><path class="st246" d="M143.8 339.9c-4.4-.6-9-1.7-13.1-3.4.5 4.1 2.7 7.8 2.9 12 2.3.7 4.6 1.2 6.9 1.5.2-3.6 1.9-6.8 3.3-10.1z"/><path class="st247" d="M162 349.2c-.2-4 .6-7.9 2.3-11.5-.7.2-1.4.4-2.1.5-2.7.6-5.5 1.7-8.3 2.1-1 .1-1.9.2-2.9.2.7 3.5 1.8 6.9 1.6 10.5 3.3-.1 6.5-.5 9.4-1.8z"/><path class="st248" d="M172.6 345.9c.7-.3 1.4-.7 2.1-1.1.1-3.5-4.4-6.2-6.9-7.9-.1 0-.1-.1-.1-.2-.9.3-1.7.5-2.6.7-1.8 3.5-2.7 7.5-2.5 11.4 2.6-1 5.6-1.2 8.2-2.3.5-.1 1.1-.3 1.8-.6z"/><path class="st249" d="M176.1 344.1c.7-.3 1.4-.6 2-.9 1.4-.7 2.9-1.3 4.3-2.1-2.4-3.1-.6-7.5-.4-11.1-1.2.7-2.3 1.4-3.4 2.1-3.2 1.9-6.7 3.4-10.3 4.5 2.8 1.8 6.7 4.4 6.9 8l.6-.3c.1-.2.2-.3.3-.2z"/><path class="st250" d="M193.5 332.2c-.4-2.9-4.8-4.5-7.2-5.3-1.2.9-2.4 1.8-3.6 2.6-.1 3.4-2.2 8.2.3 11.1l2.4-1.3.1-.1c2.4-1.5 4.7-3.2 6.5-5.3.6-.4 1-1 1.5-1.7z"/><path class="st251" d="M201.1 305.8c-.6 1.5-1.3 3-2.1 4.5-.9 1.6-2 3.2-3 4.7 2.4 2.1 4.1 4.5 5.1 7.5.7-1.1 1.3-2.1 1.8-3.3 1.8-3.4 3.6-6.8 5.1-10.3-2-1.6-4.4-2.7-6.9-3.1z"/><path class="st252" d="M206.8 283c-.2 2.5-.7 4.9-1.3 7.2v.1c-.4 1.8-.9 3.6-1.4 5.4 2.7-1.1 5.5-2 8.5-2 .4-2.3.6-4.6.7-6.9-1.7-1.6-4-2.7-6.5-3.8z"/><path class="st253" d="M212.8 272.5c-.2-1.9-.5-3.8-1.2-5.6-.6-.2-1.4-.3-2.1-.3-1.5 0-2.7.4-3.7 1 .3 2 .8 3.9 1 5.9 2-.1 4-.7 6-1z"/><path class="st254" d="M212.9 273.5v-.4c-2 .3-4 .9-6 1v.3c.2 2.5.2 5.1 0 7.6v.3c2.5 1 4.7 2.2 6.5 3.8v-2.6c0-3.2-.1-6.6-.5-10z"/><path class="st255" d="M212.5 294.6c-3 0-5.8 1-8.6 2.1l-.1.4c-.7 2.7-1.4 5.4-2.4 8 2.5.5 4.9 1.6 6.9 3.2.7-1.7 1.4-3.3 1.9-5.1v-.1c-.1-3 1.8-5.5 2.3-8.5z"/><path class="st256" d="M199.1 325.2c0-.2.2-.3.3-.3.4-.6.9-1.2 1.2-1.8-.9-3.1-2.6-5.6-5-7.7-1.5 2-3 4-4.3 6.1-.1.1-.1.1-.2.1-1.1 1.8-2.6 3.4-4.3 4.8 2.6.9 6.3 2.5 7.1 5.3 1.3-1.7 2.5-3.4 4-5l1.2-1.5z"/><path class="st257" d="M150.4 340.5c-1.6 0-3.1-.1-4.7-.3l-1.3-.2c-1.4 3.3-3.2 6.5-3.4 10.1.6.1 1.2.2 1.9.2 2.9.3 6 .6 9.2.6.2-3.5-1-6.9-1.7-10.4z"/><path class="st258" d="M111.4 286.3c.6-2 1.3-4 1.5-6.1-.5 1-1.1 2-1.6 2.9-.7 1.2-1.5 2.5-2.3 3.7.7-.3 1.5-.5 2.4-.5z"/><path class="st259" d="M108.9 287.5c-.2.1-.3 0-.3-.2l-2.7 3.9c.8 2.5 2.4 4.6 3.5 6.9 0-2.5.4-5 .8-7.4.2-1.3.6-2.5 1-3.8-.8.1-1.6.3-2.3.6z"/><path class="st260" d="M130.9 140.2c1.8-1 3.1-2.4 4.6-3.7 1.3-1.2 2.8-2.3 3.8-3.8-1.5-.6-2.9-1.3-4.4-2-.1.3-.5.3-.5-.1v-.1c-2.4-1.1-5-1.7-7.3-3.1.6 1.5 1 3.2 1.5 4.7.8 2.7 1.6 5.4 2.3 8.1z"/><path class="st261" d="M145 144.9c-.4-1.8-.8-3.7-1.5-5.5-.7-2-1.6-3.9-2.1-5.9l-1.5-.6c-1 1.7-2.6 2.8-4 4.1-1.5 1.4-3 2.8-4.8 3.8 0 .2.1.4.2.6 4.8.1 9.5 1.1 13.7 3.5z"/><path class="st262" d="M134.3 156.7c1.9-1 3.8-1.9 5.6-3.1 0-3.4.2-6.9-.2-10.3-2.7-.8-5.5-1.2-8.3-1.2l.3 1c1.1 4.5 2 9.1 2.6 13.6z"/><path class="st260" d="M147.2 162.9v-1.2c-.1-1.9-.2-3.8-.4-5.7h-.1c-2.2-.6-4.4-1.3-6.6-1.8-1.8 1.2-3.8 2.2-5.7 3.2.3 2.2.4 4.5.5 6.8 4.1-.9 8.2-1.3 12.3-1.3z"/><path class="st263" d="M138.6 175.3c.5.6 1 1.2 1.4 1.8 1.4 2.3 2.6 4.7 4 6.9v.1c.9-.2 1.8-.4 2.6-.9h.1c.1-2.1.2-4.2.4-6.3.1-2.6.2-5.2.2-7.8-3.2 1.6-5.9 3.9-8.7 6.2z"/><path class="st264" d="M147.3 168.5v-4.9c-4.1 0-8.3.4-12.3 1.3v.3c.2 2.3.3 4.5.3 6.8.7 1 1.8 1.4 2.5 2.3.1.1.2.3.4.4 2.8-2.3 5.7-4.6 9.1-6.2z"/><path class="st265" d="M136.1 173.7c-.3-.2-.6-.5-.8-.7 0 4.2-.4 8.4-1.1 12.6 2.1-.1 4.1-.7 6.3-1.1l3-.4c-1.5-2.5-2.7-5.4-4.5-7.6-1-1-1.8-1.9-2.9-2.8z"/><path class="st266" d="M141.2 203.9l1.9-.4 6.5-1.1c-1.1-3.2-2.5-6.4-2.9-9.8-.8.5-1.3 1.3-1.9 2-.8.8-1.5 1.7-2 2.7-1.1 2.1-1.8 4.3-1.6 6.6z"/><path class="st177" d="M136.8 205.2c1.1-.2 2.1-.8 3.1-1 .2 0 .5-.1.7-.2-.3-2.7.7-5.4 2-7.8.3-.6.8-1.1 1.3-1.6-3.8-.2-7.3-1.6-10.8-2.9-.2.9-.4 1.8-.6 2.8.9 2.9 1.9 5.7 3.2 8.5.3.7.7 1.5 1.1 2.2z"/><path class="st267" d="M153.2 211.1c-1-1.8-1.9-3.7-2.6-5.6-1.2 3-3.7 5.5-3.7 8.9 2.3.3 4.6.7 7 .7.2 0 .3.1.3.3l1.4-.3.1-.4c-.9-1.1-1.7-2.2-2.4-3.5-.1 0-.1 0-.1-.1z"/><path class="st268" d="M145.6 238.5c-2.1-.8-4.3-.9-6.6-1.2h-.1l-.3.4c.1 1.4 1 2.6 1.9 3.6 1.6-.2 3.3 0 4.7.4.8.2 2.2.7 4 1.3-1.3-1.3-2.6-2.9-3.6-4.5z"/><path class="st269" d="M146 237.9c1.4-2 2.9-3.9 4.9-5.3-2.3-1.7-3.9-4.1-5.8-6.2-.1.1-.3 0-.4-.2-.6-.1-1.1-.1-1.7-.1-.1 1-.3 2-.5 3 .1.2 0 .4-.1.4-.6 2.5-1.6 4.8-2.9 7 2.1.3 4.3.4 6.3 1.1 0 .2.1.2.2.3z"/><path class="st138" d="M151.6 232.4c2.1 1.2 4.3 2.1 6.5 2.5v-.3c.1-2.4-.1-4.9-.5-7.3-1.7-3.6-4.6-6.2-7.2-9.2-2.4 2-4.1 5-5.2 7.7 2.2 2.3 3.8 4.9 6.4 6.6z"/><path class="st270" d="M157.4 237.5c.3-.6.5-1.3.6-1.9-2.3-.4-4.4-1.3-6.4-2.4 0 0-.1 0-.1-.1 0 0-.1 0-.1-.1-2.2 1.3-3.7 3.4-5.1 5.4.9 1.4 2 2.8 3.2 4 0-.1.1-.1.2-.1 1.8 0 3.5-.3 5.3-.4.8-1.3 1.7-2.7 2.4-4.2-.1-.1 0-.1 0-.2z"/><path class="st271" d="M158 237.6c2 .7 4.1.8 6.2.8h1c.2-3.3 2.9-6.2 5.2-8.5-1-1.6-2-3.2-2.5-5-.9.9-1.9 1.8-3.2 2.4h-.1c-2.1.4-4.2.1-6.3.4.5 2.6.9 5.6.3 8.2l-.6 1.7z"/><path class="st272" d="M169.3 247l1.9 2.2c1.3 1.3 2.9 2.2 4.5 3.1 2.2-2.6 3.8-7.6.7-10.3-1.8-1.6-4.2-2.1-6.1-3.5-1.1 2.1-1.8 4.4-2.6 6.7.4.8 1 1.2 1.6 1.8z"/><path class="st273" d="M182.4 230.5c-1.1-.7-2.3-1.3-3.5-1.9-1-.5-2.1-1-2.8-1.9-1.6-.4-3.3-.8-5-1.1-.9-.2-1.8-.4-2.7-.7.5 1.7 1.5 3.2 2.5 4.7l.1.2c3.3 1.1 6.6 2 9.7 3.6.3-1 1-2 1.7-2.9zm-1-1.4l1.4.9c.2-.2.4-.4.6-.7-1.8-.9-3.8-1.6-6.1-2.3 1.3.9 2.9 1.3 4.1 2.1z"/><path class="st274" d="M185 232.4c-.4-.4-.8-.7-1.3-1-.3-.2-.5-.4-.8-.5v.1c-.6.7-1.2 1.6-1.6 2.4 1.2-.6 2.4-.8 3.7-1z"/><path class="st275" d="M185.9 232.4h1.6c-1-1-2.1-1.9-3.5-2.7l-.6.7c.8.5 1.7 1.2 2.5 2z"/><path class="st276" d="M170.2 237.7c.1 0 .1 0 .2.1 1.8 1.4 4.4 2 6.2 3.5.7-2.7 2.1-5 3.6-7.3-3-1.5-6.3-2.4-9.5-3.5-2.1 2.1-4.7 4.9-4.9 8 .8 0 1.6-.1 2.4-.3.6-.3 1.3-.5 2-.5z"/><path class="st277" d="M169.1 263.1l.1-.9c.4-2.4 1.5-4.3 2.9-6.1-2.2-.5-4.6-1.2-6.2-2.7-.4 1.3-1.3 2.4-1.9 3.6 1.1 2.6 2.9 5.1 5.1 6.1z"/><path class="st278" d="M163.7 257.8l-1.7 3.9c-.2.3-.4.7-.5 1.1.8.8 1.7 1.6 2.5 2.3 1.7 1.5 3.6 2.5 5.7 3.2-.4-1.4-.6-2.9-.6-4.4-2.3-1.1-4.2-3.5-5.4-6.1z"/><path class="st279" d="M163.3 265.3c-.7-.6-1.4-1.3-2.1-2-1.1 2.3-2.2 4.8-2.7 7.2.8 1.2 1.5 2.4 2 3.8.8-.5 1.6-1 2.5-1.3 2.4-1 4.9-1.4 7.4-2-.1-.7-.3-1.4-.4-2-2.6-.8-4.7-2-6.7-3.7z"/><path class="st280" d="M172.6 255.6c.8-1 1.7-1.9 2.7-2.8-1.7-1-3.5-2-4.8-3.5-.9-1.1-2.3-2.2-3.1-3.4-.1 0-.2 0-.3-.1-.7.4-1.4.8-2.2 1.1.6.7.4 2-.1 3.5.7 3.5 4.6 4.5 7.8 5.2z"/><path class="st281" d="M164.3 283.6c0 .4-.1.8-.2 1-.3 1.4-5.4 12.3 2.7 14.4 1.1-4.2.7-8.5 1.3-12.7.2-1.4.4-2.9.7-4.3-1.6.1-3 1.2-4.5 1.6z"/><path class="st282" d="M170.5 271.7c-2.3.6-4.7.9-6.9 1.8-1.1.4-2 1-2.9 1.6.8 2.2 1.8 4.4 2.1 6.8 1.3-1.1 1.6-.1 1.5 1.1 1.6-.5 2.9-1.6 4.6-1.5l.3-1c.6-2 1.7-3.9 2.1-5.9v-.1c-.4-1-.6-1.9-.8-2.8z"/><path class="st283" d="M168.4 289.5c-.2 3.3-.2 6.5-1 9.7 4.6.9 6.2-3 6.7-6.5-1.4-1.7-3.7-2.5-5.7-3.2z"/><path class="st284" d="M177.7 291.4c.5-.9 1.3-1.7 1.7-2.7-.2-.4-.4-.9-.7-1.3-1.1-2.4-2.5-4.7-3.8-7-1-1.7-1.8-3.6-3.2-5.1-.5 1.7-1.3 3.2-1.8 4.8-.7 2.4-1.2 5-1.4 7.6 0 .4-.1.8-.1 1.1 2.1.7 4.3 1.6 5.8 3.1.2-1.9.1-3.5.1-3.9-.1-1-.1-3.9.6-2.1.3.7 1.2 3.3 2.6 5.9 0-.1.1-.3.2-.4z"/><path class="st285" d="M182.3 292.7c-1-1-1.9-2.2-2.6-3.5-.3.7-.8 1.2-1.2 1.8-.3.5-.5.9-.7 1.4 2.1 3.5 5.3 6.5 9.2 3.8-1.6-1-3.3-2.1-4.7-3.5z"/><path class="st286" d="M188.4 288.7c.6 1.3 1.1 2.6 1.5 4 .1.2.1.4.2.5 2.5-4.2-.7-8-3.2-10.2-.3.6-.7 1.1-1.1 1.6 1 1.2 1.9 2.5 2.6 4.1z"/><path class="st287" d="M189.3 292.9c-.5-1.5-1.1-3-1.7-4.5-.6-1.3-1.4-2.4-2.3-3.4-1.5 1.5-3.6 2.3-5.9 2.1.9 1.8 1.9 3.8 3.4 5 1.6 1.3 3.2 2.5 4.9 3.7l.5-.4c.6-.6 1.1-1.1 1.5-1.7-.2-.1-.3-.5-.4-.8z"/><path class="st288" d="M178.2 268.5c-.1 0-.2-.1-.2-.3v-.5c-2.5.2-5 1.7-7.5 1.5l.4 2v.1c.2 1.1.5 2.1 1 3.1.1.1 0 .2 0 .3 1.3 1.3 2.1 3 3 4.5 1.3 2.2 2.7 4.4 3.8 6.7.1.2.2.4.2.5h.1c2.3.2 4.3-.5 5.7-1.9-.8-.8-1.6-1.6-2.3-2.4-3.5-3.8-3.3-8.7-4.2-13.6z"/><path class="st289" d="M178.8 263.2l.5-1.5c-1.6-.1-3.5-.1-4.9-1.1-1.1-.8-1.9-1.8-3-2.7-.9 1.4-1.5 2.8-1.7 4.5-.2 2.1.2 4 .6 6 0 0 .1.1.1.2 1.4.1 2.8-.5 4.2-.8 1.2-.3 2.3-.6 3.4-.6.1-1.3.4-2.5.7-3.7.1-.2.1-.2.1-.3z"/><path class="st290" d="M176.9 251.7c1.9.6 3.8 1.9 5.8 1.9.4 0 .9 0 1.3-.1.5-.7.9-1.5 1.3-2.3.9-2.1 1.6-4.4 2.1-6.7.2-.6.3-1.1.4-1.7-1 .4-2.1.6-3.1 1.1-1.9.9-3.9 1.9-6.1 1.7.1 2.1-.5 4.3-1.7 6.1z"/><path class="st291" d="M182.7 254.3c-2.1-.2-3.9-1.3-6-2-.1 0-.2-.1-.2-.2l-.4.5c.2.2 0 .7-.3.5-.9.9-1.8 1.8-2.7 2.8 0 .2-.1.5-.3.4l-.9 1.2c1.1 1 2.1 2.5 3.6 3 1.3.4 2.7.5 4.1.7.5-1.3 1.2-2.6 1.9-3.9.6-1 1.3-2 2-2.9-.3-.1-.5-.1-.8-.1z"/><path class="st292" d="M186.3 279.6c.6.3 1.6 1 2.9 1.6-.3-2.6.6-5 1.5-7.4-2-.6-4-1.4-5.8-2.4-.1 0-.2 0-.3-.1-2-1-4-2.2-5.8-3.5h-.1v.3c.6 2.7.6 5.5 1.3 8.2.7 2.9 2.2 5 4.4 7 .4.3.7.7 1 1 .4-.5.8-1 1.1-1.6-.8-.7-1.5-1.2-1.7-1.5-1.1-1.1-.9-3 1.5-1.6z"/><path class="st293" d="M189.2 267.9c-1.2 1.1-2.4 2.2-3.7 3.1 1.8.9 3.7 1.6 5.7 2.2 3.2.5 6.4 1.9 8.6 4.2 1.5-7.8-7.6-8.5-10.6-9.5z"/><path class="st289" d="M187.7 252.2c.6-1.4 2.5-6.1 2.7-11.1-.6.5-1.2 1-1.8 1.4h-.1l-.1.7c-.5 2.1-1.1 4.2-1.8 6.2-.5 1.5-1.1 2.7-1.9 4 1-.2 2-.7 3-1.2z"/><path class="st294" d="M187.9 266.4c-2.5-1.8-4.8-3.7-5.4-7-1.1 1.4-2.1 2.8-3.2 4.1-.3 1.1-.5 2.2-.6 3.3 2 1.4 4 2.7 6.1 3.8 1.3-.9 2.5-2 3.7-3-.9-.5-1-.8-.6-1.2z"/><path class="st295" d="M198.4 255.9c-1-.2-2-.4-2.9-.3-1.7.2-3.6.6-5.2 1.2-2.4 1-4.6 2.6-7 3.4.8 2.6 3 4.3 5.2 5.9.5-.2 1.1-.4 1.7-.5 1.7-.4 10.1-1.8 8.3-9.6l-.1-.1z"/><path class="st296" d="M183 259.3c0 .1 0 .2.1.3 2.8-1 5.2-2.9 8-3.8 1.4-.4 2.9-.9 4.3-.9 1 0 1.9.2 2.8.3-1.8-5.4-7.6-3.8-9.9-3 0 .1 0 .3-.1.3-.4.3-.9.5-1.4.8 0 .1 0 .1-.1.2-1.2 1.9-2.6 3.7-4 5.5.2.1.3.2.3.3z"/><path class="st297" d="M185.9 253.7c-.6.2-1.2.4-1.8.5l-.6.9c-1.5 2.1-2.8 4.4-3.7 6.9 2.1-2.7 4.2-5.4 6.1-8.3z"/><path class="st298" d="M191.2 273.9c-.9 2.4-1.9 4.9-1.5 7.5 3.5 1.6 8.2 2.5 9.8-3.3-2.1-2.3-5.2-3.7-8.3-4.2z"/><path class="st299" d="M163.8 256.3c.6-1 1.3-2 1.7-3.2 0-.1 0-.1.1-.1-.4-.5-.8-1.1-1-1.8-.4 1-.8 2.1-1.3 3.1 0 .7.2 1.4.5 2z"/><path class="st300" d="M162.8 255.2c-.4.8-.7 1.6-.9 2.2-.6 1.8-1.2 2.6-1.9 3.6.3.5.6.9 1 1.3l.2-.4c.8-1.5 1.4-3.1 2.1-4.6l.1-.2c-.2-.7-.4-1.3-.6-1.9z"/><path class="st301" d="M159.7 261.6c-.6 1-1.1 2.4-1.5 5-.2 1.2-.4 2.2-.7 3 .1.2.2.3.4.5.6-2.4 1.7-4.8 2.8-7.1-.3-.6-.7-1-1-1.4z"/><path class="st302" d="M157.2 276.8c.9-.7 1.8-1.4 2.8-2.1-.5-1.3-1.1-2.5-1.9-3.6-.2 0-.3-.1-.3-.4l-.4-.6c-1 2.4-2.2 2.8-2.8 3.2-.9.4-12.1 6.7-7 12.7 2.4-3.7 6-6.5 9.6-9.2z"/><path class="st303" d="M157.5 277.3c-3.5 2.7-7.1 5.4-9.5 9.2l.2.2c6.5 6.1 11.6-1.9 14.1-4.4-.3-2.4-1.3-4.7-2.1-6.9-.9.6-1.8 1.2-2.7 1.9z"/><path class="st7" d="M178.5 244.9c2.4.3 4.2-1.1 6.4-1.8 1.1-.3 2.1-.6 3.1-1.1.2-1.3.3-2.7.1-4-.3-2-1.2-3.6-2.4-4.9-1.6.1-3.2.5-4.7 1.2h-.3c-1.5 2.4-3 4.8-3.6 7.5.4.4.7 1 1 1.6.2.5.3 1 .4 1.5z"/><path class="st304" d="M190.1 237.5c-.3-1.8-1-3.2-2-4.5h-1.6c2 2.5 2.6 5.5 2.2 8.7.2-.1.4-.2.5-.4l1.2-1c-.1-1-.2-1.9-.3-2.8z"/><path class="st305" d="M161.4 246.3c.7.1 1.3.1 1.9.1.3 0 .6 0 .8.1 1-.2 2-.8 2.8-1.3h.2c.8-2.2 1.5-4.5 2.5-6.7l-2.4.5c-1.2.1-2.4.1-3.6.1-2 0-4-.1-5.9-.9-.6 1.4-1.4 2.7-2.2 4 1.1.8 2.1 2 3.3 2.7.8.5 1.7.9 2.6 1.4z"/><path class="st306" d="M164.5 226.6c1.1-.5 2-1.2 2.8-2.1-3.2-1.1-5.7-2.7-7.6-4.2-1.3 1.1-2.3 2.4-3.1 3.9.6.9 1.1 1.8 1.6 2.7 2-.2 4.2.1 6.3-.3z"/><path class="st307" d="M159.2 220c-2.5-2.1-3.8-3.8-3.8-3.8v-.4c-1.7.2-3.2 1-4.6 2 1.8 2 3.7 3.9 5.3 6 .9-1.4 1.9-2.7 3.1-3.8z"/><path class="st308" d="M150.8 243.6c2.7.9 5.8 1.8 8.4 2.3l-.7-.4-3.5-2.9-4.9.4.7.6z"/><path class="st309" d="M133.7 246.9c1-1.3 2-2.5 2.7-3.3 1-1.2 2.2-1.8 3.6-2.1-.8-.9-1.4-1.9-1.7-3-.3.5-.6.9-1 1.4l-5.7 7.6c.7-.1 1.4-.4 2.1-.6z"/><path class="st310" d="M131.1 248.2c-1.5 2-3 4-4.6 5.8v.1c-.1.8 0 1.6 0 2.4 1.7-2.4 4.2-5.8 6.4-8.7-.5.2-1.1.3-1.8.4z"/><path class="st311" d="M113.2 273.4c-.7-2.4-.5-4.9-.7-7.4-3 2.4-6 4.9-8.7 7.6-1 1-1.9 2-2.8 3.1 1.3.5 2.6 1.1 3.9 1.3 1.4.2 2.7.4 4 .6 1.4-1.6 3-3.2 4.3-5.2z"/><path class="st312" d="M113.6 272.8c.8-.1 1.6-.1 2.4-.1 1.5-3.1 3.1-6.2 4.9-9-.1-.1-.1-.1-.1-.2v-4.2c-1.6 1.7-3.7 3-5.5 4.5l-2.4 1.9v.1c.3 2.3.1 4.7.7 7z"/><path class="st313" d="M113.8 273.4c0 .1 0 .1-.1.1-1.3 2.1-3 3.8-4.6 5.7.1 1.5.6 2.9 1.1 4.3l.3-.4c1.9-3.2 3.4-6.5 5.1-9.8-.6.1-1.2.1-1.8.1z"/><path class="st314" d="M105.6 290.3c.1 0 .1.1 0 0 1.5-2 3-4 4.3-6.1v-.1c-.6-1.5-1.1-3.1-1.2-4.7-1.5-.3-3.1-.3-4.5-.8l-3.6-1.3c-1.5 1.8-2.9 3.8-4.1 5.8 1.6 1.5 3.1 3.2 4.9 4.4 1.4.9 2.9 1.6 4.2 2.7v.1z"/><path class="st315" d="M102.2 295.7c.9-1.6 2-3.2 3.1-4.7 0-.1 0-.2-.1-.3l-5.4-3.6c-1.3-1.1-2.5-2.4-3.7-3.5-1.2 2.1-2.3 4.2-3.2 6.4 1.7 2.4 3.6 4.5 5.2 7 1.2-.6 2.6-1 4.1-1.3z"/><path class="st225" d="M97.9 308.3c.4-4.2 1.8-8.1 3.8-11.8-4.6 1-8.4 3.8-12.3 6.4l-.3 3.8c2.9.9 5.8 1.7 8.8 1.6z"/><path class="st316" d="M102.5 326c-.8-1.7-1.5-3.5-2.2-5.2-.6-1.6-1.2-3.2-1.7-4.9-2.4.8-4.9 1.7-7.4 1.7 1.1 2.3 2.3 4.5 3.8 6.9 2.4 1.1 4.8 1.4 7.5 1.5z"/><path class="st317" d="M103 335.5c1.2-1.1 2.1-2.6 3.2-3.7-.4-.4-.8-.8-1.1-1.3-.9-1.2-1.7-2.5-2.3-3.9 0 0-.1.1-.2.1-2.5-.1-4.8-.4-7-1.2 1.9 3 4.1 6 6.7 9.2.3.2.5.5.7.8z"/><path class="st318" d="M114.3 339.7c-.1 0-.3-.1-.3-.2-.6-.5-1.2-1-1.7-1.6l-3.7-4-1.8-1.7c-1.2 1.1-2.1 2.5-3.3 3.7 1.7 2 3.7 3.7 5.7 5.3 2.7.5 5.4 1.1 8 .5-1.1-.6-2-1.3-2.9-2z"/><path class="st319" d="M133.2 349.1c-4-1.2-7.9-2.8-11.6-4.8l-.1 3.9c3 1.2 6.2 2.2 9.4 3l2.8-2-.5-.1z"/><path class="st320" d="M213.6 275.4c1 .5 2.2 1 3.2 1.6-.2-4.5-1.3-8.5-4.5-9.9.6 1.6.9 3.4 1.1 5.2.1 1 .2 2.1.2 3.1z"/><path class="st321" d="M213.7 276.1c.2 2.3.2 4.6.3 6.9 0 1.2 0 2.5-.1 3.7.7.8 1.4 1.7 1.9 2.7.5-3.1 1.1-7.5 1-11.7-.9-.6-2-1.1-3.1-1.6z"/><path class="st322" d="M199.1 326.1l-1.2 1.5c-2 2.4-3.7 5-5.8 7.3l-1.4 1.4c.5.1 1 .3 1.6.4 2.6-2.2 5-4.5 7-6.8 0-1.3-.1-2.5-.2-3.8z"/><path class="st323" d="M185.7 341.6c2.1-1.4 4.1-2.9 6-4.4-.5-.1-.9-.2-1.4-.4 0 0-.1 0-.1-.1-1.3 1.1-2.8 2.2-4.2 3.1 0 .7-.2 1.3-.3 1.8z"/><path class="st324" d="M172.9 348.5c2-.8 4-1.8 5.9-2.7l-2.5-.9c-1.1.6-2.2 1.1-3.3 1.6 0 .6 0 1.3-.1 2z"/><path class="st325" d="M140.9 350.8h-.4c-2.2-.3-4.3-.8-6.4-1.4 0 .1 0 .2-.1.3-.8.5-1.6 1.2-2.4 1.8 3.5.8 7 1.3 10.4 1.6-.4-.8-.8-1.5-1.1-2.3z"/><path class="st326" d="M142.8 351l-1.2-.2c.3.8.8 1.5 1.4 2.2 4.8.3 9.6.2 14.1-.4 0-.1.1-.1.2-.2 1.6-.2 3.2-1.3 4.4-2.4-5.9 2.4-13 1.7-18.9 1z"/><path class="st327" d="M172.4 346.7l-1.5.6-8 2.2s0 .1-.1.1c-.9 1-1.9 2-3.1 2.6 2.6-.4 5.1-1 7.4-1.7 1.8-.6 3.5-1.2 5.2-1.9.1-.6.2-1.2.1-1.9z"/><path class="st328" d="M178.9 343.5l-1.8.9 2.5.9c1.9-1 3.7-2.1 5.4-3.2.2-.6.4-1.3.4-1.9-2.1 1.2-4.4 2.3-6.5 3.3z"/><path class="st329" d="M205.2 316.1c-.8 1.4-1.5 2.9-2.3 4.4-1 1.8-2 3.4-3.2 4.9 0 1.3.2 2.6.2 3.8 2.6-3 4.7-6 6.3-8.9.5-.9.9-1.8 1.4-2.6-.9-.5-1.7-1-2.4-1.6z"/><path class="st330" d="M209.8 306.1c-1.2 3.3-2.7 6.4-4.3 9.5.7.6 1.5 1.1 2.3 1.6 2.2-4.6 3.9-9.2 5.1-13.5-1 .9-2 1.7-3.1 2.4z"/><path class="st331" d="M213.9 287.6c-.1 2-.3 4-.6 5.9l-.1.7v.2c-.2 1.2-.6 2.4-1.1 3.6-.7 1.6-1.3 3.1-1.3 4.8.1.1.1.2.1.4-.2.6-.4 1.3-.7 1.9 1.1-.7 2-1.6 3-2.5 1.3-4.6 2-8.7 2.5-11.8v-.3c-.5-1.1-1.1-2.1-1.8-2.9z"/><path class="st332" d="M121 344c-1.1-.6-2.1-1.2-3.1-1.8-2.4.8-5 .3-7.6-.1 3.3 2.4 6.8 4.3 10.6 5.9.1-1.3.1-2.6.1-4z"/><path class="st333" d="M98.5 315.3c-.5-1.8-.8-3.6-.9-5.4 0-.2.1-.3.2-.3v-.7c-3 .1-5.9-.7-8.8-1.6-.1 1.7-.2 3.3-.1 5 .6 1.6 1.2 3.1 1.9 4.7 2.8.1 5.2-.9 7.7-1.7z"/><path class="st334" d="M97.5 297.3c-1.5-2.3-3.3-4.4-4.9-6.6-1.3 3.3-2.3 6.7-3.1 10.1v1.3c2.6-1.7 5.2-3.6 8-4.8z"/><path class="st335" d="M121.4 262.9c1.3-1.9 2.7-3.7 4.3-5.4.1-.1.2-.1.3 0l.2-.2c-.1-.9-.2-1.8-.1-2.7-.1 0-.1 0-.2-.1-.6.6-1.2 1.1-1.9 1.7-.9.7-1.8 1.6-2.6 2.5v4.2z"/><path class="st336" d="M143 225.6l1.7.1c1.5-4 4.4-8.3 8.4-9.9-4-.2-7.9-1.2-11.9-1.1 1.3 3.4 2 7.2 1.8 10.9z"/><path class="st337" d="M141.1 214c1.8 0 3.5.1 5.3.4.1-3.7 2.8-6.3 3.9-9.6l-.3-.8c-.1-.3-.2-.6-.3-.8h-.1c-2.4.4-4.7.7-7.1 1.2-.5.1-1 .2-1.4.3-.1.1-.2.1-.3.1-.6.1-1.3.3-1.9.5-.6.3-1.3.5-1.9.6.9 1.6 1.8 3.2 2.6 4.9.6.9 1.1 2 1.5 3.2z"/><path class="st338" d="M144.4 194.1c.1-.1.1-.2.2-.2.6-.7 1.1-1.4 2-1.9v-.8c0-2.4.1-4.8.2-7.2-1.8 1-3.8.8-5.8 1.2-2.3.4-4.5 1.1-6.9 1.2-.3 1.6-.6 3.2-.9 4.9 3.6 1.2 7.1 2.7 11 2.9.1-.2.2-.2.2-.1z"/><path class="st339" d="M140.5 153.6c2.1.5 4.2 1.1 6.3 1.7-.3-3-.7-5.9-1.4-8.9l-.2-.8c-1.6-.9-3.2-1.7-4.9-2.2.4 3.5.2 6.9.2 10.2z"/><path class="st340" d="M126.8 96.8c1.4-.7 2.6-1.6 4.1-2.2-3.2-2.7-6.5-5.3-9.5-8.1l-.5-.4c-1.6 3-1.4 7.2-1.2 10.4 0 .8.1 1.6.2 2.5 1.8-.4 3.7-.7 5.4-1.4.5-.2 1-.4 1.4-.6 0-.1.1-.2.1-.2z"/><path class="st341" d="M138.6 102.5c-1.3-1.7-2.5-3.4-4.2-4.8-.1 0-.2 0-.3-.1-.9-.9-1.8-1.7-2.8-2.6l-.1.1c-1.5.6-2.8 1.5-4.1 2.2.3 1.9 1.5 3.5 2.3 5.2.8 1.8 1.7 3.6 3 5.2 1-.9 2.3-1.7 3.6-2.3 1.2-.5 2.5-1.1 3.8-1.6-.4-.3-.8-.8-1.2-1.3z"/><path class="st156" d="M128.8 102.6c-.9-1.6-1.9-3.1-2.2-4.9-.6.3-1.2.5-1.9.7l-4.9 1.2c.2 1.7.4 3.4.7 5.1 2.2 2.7 5 4.8 7.9 6.7l.1-.1c1.5-.7 2.3-2.1 3.5-3.2-1.3-1.7-2.1-3.6-3.2-5.5z"/><path class="st342" d="M138.5 112.9c-.5-2.5-.4-5-.7-7.5-.6.2-1.1.5-1.6.7-1.3.6-2.4 1.3-3.3 2.2.1.3-.2.7-.4.4-.4.3-.7.7-1.1 1.1-.7.8-1.4 1.5-2.3 2 .1 0 .2.1.2.2 3.2 2.2 6.1 4.6 9.3 6.7l1.8 1.2c-.8-2.3-1.4-4.6-1.9-7z"/><path class="st343" d="M146.7 112.9l-3.6-4.8c-.9-1.3-1.9-2.5-3-3.6l-1.8.7c.3 2.7.2 5.5.8 8.1.5 2.1 1 4.2 1.7 6.3 1.2-2.8 3.4-5.1 5.9-6.7z"/><path class="st344" d="M150.6 117.5c.1 1.7-.3 3.4-.1 5.1.3 1.8.5 3.5 1.1 5.2v.1c.8.6 1.7 1.3 2.5 2-.5-.9-.9-1.7-1.3-2.3-2-3.6-1.8-7.5-1.6-9.2l-.6-.9z"/><path class="st202" d="M149.9 122.7v-5.9l-2.8-3.4c-2.6 1.6-5 4-6 7 2.7 1.8 5.4 3.6 8 5.7.6.4 1.1.8 1.6 1.3-.3-1.6-.6-3.2-.8-4.7z"/><path class="st345" d="M124 82.2c1.8-.9 3.8-1.4 5.8-1.8-.7-1.2-1.8-5.9-2.3-7.8-1.1.4-2.2.6-3.3.8.3 3 .3 5.9-.2 8.8z"/><path class="st336" d="M123.4 82.6c.5-3 .5-6 .3-9.1-4.2.5-8.7-.3-12.9-.4.6 1.1 1.3 2.1 2.1 3.2 2.3 3.2 4.9 6.1 7.8 8.8.3-.6.8-1.1 1.3-1.5.4-.4.9-.7 1.4-1z"/><path class="st346" d="M167.3 59.3c-.8-1.9-1.1-3.7-1.2-5.6-2.2 2-1.5 4.8-.1 7.3l1.3-1.7z"/><path class="st203" d="M170.4 68.3c.4.7.6 1.4.8 2.2.7-.5 1.5-.7 2.5-.7-.5-1.3-1.1-2.6-1.8-3.9-1.1-1.8-2.5-3.4-3.7-5.1-.2-.3-.4-.6-.6-1-.4.5-1 1-1.3 1.6 1.3 2.1 3 4 3.7 4.9.9 1.1.8 1.7.4 2z"/><path class="st347" d="M176.1 78.1c-.3-1.8-.7-3.6-1.3-5.3l-.8-2.4h-.1c-4.3-.2-5 5.1-4.6 8.5.8.7 1.3 1.7 1.7 2.9 1.3-1.5 3.4-2.6 5.1-3.7z"/><path class="st348" d="M176.4 82c0-1.1 0-2.1-.2-3.2-1.7 1.1-3.8 2.2-5 3.8.1.5.2.9.2 1.4 1.4-.8 3.2-1.6 5-2z"/><path class="st349" d="M171.4 84.8c.1 1.3 0 2.6-.2 3.6.5-.4 1-.9 1.6-1.3.9-.6 2-.8 3-1.1h.1l.1-.3c.2-.9.3-1.9.4-2.9-1.8.3-3.5 1.1-5 2z"/><path class="st350" d="M162.8 70.4c2.2.8 4.2 2 6.5 2.6.3-.9.8-1.6 1.4-2.2-.2-.8-.5-1.6-.9-2.4-.4 0-.8-.2-1.1-.5-.8-1-10.8-6.1-12.2 1 2.1.3 4.2.8 6.3 1.5z"/><path class="st351" d="M169.1 73.6l-6.4-2.6c-2.1-.6-4.2-1.2-6.4-1.5-.9 7.8 9.1 7.2 12.4 9-.2-1.5-.1-3.3.4-4.9z"/><path class="st352" d="M172.6 88c-.5.5-1.1 1-1.6 1.4l-.1.3c-.8 2.2-2.2 5.2-2.7 6.1 3.7.6 6.6-5.6 7.6-9.2-1.2.3-2.3.6-3.2 1.4z"/><path class="st353" d="M164.7 95.9c-1.4-.1-2.8-.1-4.1-.2-.3.7-.8 1.3-1.3 1.9-1.3 1.6-2.6 3.2-2.8 5.3l.2.1c3.4 1.5 6.8 2.1 10.3 2.5-.1-3.4-.6-6.6-2.3-9.6z"/><path class="st354" d="M176 101.3c-2.1-1.8-4.6-3.1-6.6-4.9-.8.2-1.6.1-2.4-.4h-1.5c1.6 3 2.1 6.2 2.2 9.6.5.1 1 .1 1.6.2 3.1.4 6.9.8 10 2.3-.3-2.8-1.1-4.9-3.3-6.8z"/><path class="st355" d="M186 102.5c-.8-2.8-3.1-4.6-5-6.7-2.6.5-4.4 2.7-6.9 3.3 1.3.9 2.6 1.9 3.6 3.2 1.5 1.8 1.9 3.8 1.9 6.1.6.3 1.1.7 1.6 1.1 1.1.9 2.3 2.4 1.9 4-.1.4-.2.7-.4 1.1.5-.3 1-.6 1.4-.9.1-3.8 1.1-7.4 1.9-11v-.2z"/><path class="st44" d="M174.9 62.8c-2.3-3.3-4.4-6.9-5.1-10.8-.6.1-1.3.3-2.1.7-.4.2-.8.4-1.1.7.1 1.6.2 3.3.8 4.8 1 2.3 2.9 4.1 4.3 6.2l.5.9c.7-1.1 1.6-2 2.7-2.5z"/><path class="st356" d="M175.5 72.6c1.8-.3 3.1-1.9 4.7-2.8l-3.9-5.3-.9-1.2c-1.2.5-2 1.4-2.8 2.4 1.1 2.2 2 4.5 2.9 6.9z"/><path class="st357" d="M179.7 81.5c.6-.6 1.4-.9 2.1-1.2 1-.4 2-1.1 2.7-2-.9-2.6-2-5.1-3.6-7.4l-.5-.7c-1.7.9-2.9 2.5-4.9 2.9.4 1.4.7 2.8 1 4.1.3 1.5.4 3 .4 4.5.9-.2 1.8-.3 2.7-.2 0 .1 0 .1.1 0z"/><path class="st212" d="M184.9 79.4l-.1-.3c-.6.6-1.3 1.1-2 1.5-.8.5-1.8.6-2.5 1.1.8.1 1.6.3 2.3.6 1.1.5 2.4 1.1 3.5 1.9-.3-1.7-.7-3.3-1.2-4.8z"/><path class="st358" d="M182.9 83.1c-1.9-.8-4-.9-6-.5-.1 1-.2 2-.4 3 2.1.4 4 1.6 5.8 2.6 1.7.9 3.4 1.9 4.7 3.3-.1-2.2-.4-4.3-.8-6.4-.9-.8-2.1-1.5-3.3-2z"/><path class="st359" d="M182.1 88.7c-1.9-.9-3.6-2.1-5.7-2.5-.4 1.5-.9 3-1.7 4.5-1 2-2.7 4.6-4.7 5.5 1.1.9 2.4 1.7 3.6 2.6 0-.1.1-.2.2-.3 2.6-.6 4.5-2.9 7.2-3.4.6-2.1.8-4.2 1.1-6.4z"/><path class="st360" d="M187.1 92.4c-1.3-1.4-2.9-2.5-4.5-3.4-.3 2.1-.5 4.3-1.1 6.4 1.7 2 3.8 3.7 4.8 6.1.3-1.5.6-2.9.7-4.4.1-1.5.2-3.1.1-4.7z"/><path class="st20" d="M157.6 98.8c.6-1 1.7-2 2.4-3.1-7.7-.5-13.2-1.3-13.2-1.3-.1-.1-.2-.2-.3-.4 1.6 3.9 5.7 6.8 9.5 8.6.1-1.4.8-2.5 1.6-3.8z"/><path class="st361" d="M188.2 106.6c-.3-1.4-.7-2.7-1.7-3.9-.7 3.4-1.6 6.8-1.8 10.3 1.7-1.5 2.8-3.8 3.5-6.4z"/><path class="st362" d="M187.7 94.5l-.1 2.2c-.2 1.8-.5 3.6-.9 5.3.9 1 1.5 2.2 1.8 3.5.6-2.5.9-5.4 1.2-8.3-.6-.9-1.3-1.8-2-2.7z"/><path class="st363" d="M187 85.5c.5 2.7.8 5.4.8 8 0 0 .1 0 .1.1.7.9 1.4 1.7 2 2.6.2-2.4.4-4.8.8-7-1.2-1.3-2.4-2.6-3.7-3.7z"/><path class="st364" d="M186.2 82.2c.2.8.4 1.6.5 2.4l1.3.9c1 .8 1.9 1.8 2.6 2.9.1-.5.2-.9.4-1.3-1.2-2-2.8-3.7-4.8-4.9z"/><path class="st365" d="M194.3 79.9c-2.6.2-5.1 1.1-7.7 1.8 1.9 1.2 3.5 2.8 4.7 4.7.9-2.3 2.3-3.4 3.6-3.7-.3-.9-.5-1.8-.6-2.8z"/><path class="st366" d="M183.5 56.4c0-1.6.1-3.3.3-4.9.1-.9.2-2 .6-2.9-4.4-.2-5.6 3.4-5.7 6.7 1.6.2 3.2.8 4.8 1.1z"/><path class="st367" d="M175.1 54.5c-1.2-1.5-2.8-2.7-4.8-2.6.3 1.8.9 3.5 1.7 5.1.7-1.1 1.9-2 3.1-2.5z"/><path class="st368" d="M183.5 58.1V57c-1.7-.2-3.2-.8-4.8-1 0 2.1.3 3.9.4 4.5.2 1.7-.7 2.6-.9 1-.1-.8-.9-4-2.7-6.5-1.3.4-2.4 1.3-3.1 2.4v.1c1.7 3.2 4 6.2 6.1 9 1.3 1.7 2.4 3.3 3.5 5.1.2-1.8 1.3-3.3 1.6-5.1.4-2.7 0-5.7-.1-8.4z"/><path class="st369" d="M184.3 62.3c1.3.1 2.7-.1 4-.3l.1-.3c.7-2.1 4.9-12.2-3.4-13.1-.6 1.2-.7 2.8-.8 4.1-.1 2.4-.2 4.8-.1 7.2.1.8.2 1.6.2 2.4z"/><path class="st370" d="M189.6 63.5c-.9 1-1.6.4-1.4-.8-1.3.2-2.5.4-3.8.3.1 1.3 0 2.5-.3 3.7-.5 1.9-1.6 3.6-1.6 5.6 0 .1 0 .1-.1.2.2.3.4.6.6 1 3-2.1 5.6-4.7 8.2-7.3-.4-1.1-1-1.9-1.6-2.7z"/><path class="st371" d="M190.1 62.8c-.1.1-.1.1-.1.2.6.9 1.3 1.6 1.7 2.6.6-.6 1.2-1.2 1.8-1.7 1.6-1.6 3.3-3 5.2-4.3 1.3-.9 2.8-1.8 3.6-3.2-5.1-4.6-10.9 4.3-12.2 6.4z"/><path class="st372" d="M197.5 61.2c.7 1.1 1.7 1.9 2.5 3 .6.8 1 1.6 1.5 2.4 2.5-2.7 4.3-6.2 1.4-9.6-.1-.1-.2-.2-.2-.3-.7 1.2-1.8 2-3 2.8-.8.6-1.5 1.2-2.2 1.7z"/><path class="st373" d="M192.9 73.9l-5.5-3.1-.1-.1c-1.3 1.2-2.6 2.3-4.1 3.3.7 1.3 1.3 2.7 1.8 4.1.1.1.2.3.1.4.2.5.4 1.1.5 1.6l.3 1c2.7-.6 5.4-1.6 8.2-1.9-.1-1.8-.3-3.6-1.2-5.3z"/><path class="st374" d="M199.1 64.1c-.7-.8-1.5-1.5-2.1-2.5-1 .8-2 1.6-2.9 2.5l-6.4 6.2 5.4 3c.3-.5.8-.7 1.4-1-.2-.3 0-.7 1.3-1.4 1.1-.5 3.4-1.9 5.3-3.8-.6-1.1-1.2-2.1-2-3z"/><path class="st366" d="M209 76.4c-.5-7-11.1-3.9-12.6-3.8h-1.2c-.7.3-1.4.6-1.8 1.2.4 1 .7 2 .9 3 4.9-.6 9.8-.3 14.7-.4z"/><path class="st375" d="M194.5 77.5c.3 1.7.4 3.5.9 5.2h.7c1.9.4 12.8 1.9 13-5.6-4.9 0-9.8-.2-14.6.4z"/><path class="st376" d="M138.6 90.8l1.2-.3c.6-.2 1.3-.6 1.9-.9-2.7-2.2-5.7-4.5-8-6.2l.5 7.1v.5c1.2.2 2.8.2 4.2-.1 0-.1.1-.1.2-.1z"/><path class="st123" d="M147.3 105.4c-.3-1.2-.5-2.4-.5-3.6l-6 2.3c.6.7 1.2 1.4 1.8 2.2 2.5 3.3 4.9 6.5 7.5 9.7-1-3.4-1.9-7-2.8-10.6z"/><path class="st377" d="M141.9 95.8c1.5 1.6 3.3 2.7 5.4 3.3.2-.5.4-.9.7-1.3-1.2-1.4-2.1-3-2.5-4.8-.9-.9-2.1-2-3.3-3-1 .6-2.1 1.3-3.2 1.4h-.1c.4 1.6 1.9 3.3 3 4.4z"/><path class="st378" d="M141.1 95.8c-1.1-1.2-2.4-2.7-2.8-4.4-1.4.1-2.8.3-4.2.2 0 1.9 0 3.7.6 5.5 1.6 1.3 2.7 2.9 4 4.5l1.8 2.1 6.5-2.5c0-.5.1-1 .2-1.4-2.5-.7-4.5-2.1-6.1-4z"/><path class="st379" d="M155 107.8c1.3-1 2.5-2.1 3.5-3.4-3.8-1.3-7.5-3.4-10.1-6.2-2 2.7-.7 6.2-.1 9.2.3 1.2.5 2.3.9 3.4 1.9-.6 3.8-1.6 5.5-2.8.1-.1.2-.2.3-.2z"/><path class="st361" d="M170.7 114.1c-.4-2.5-.2-5.1.8-7.3-2.4-.4-4.8-.6-7.3-1-1.6-.2-3.3-.6-5-1.2-1.1 1.4-2.4 2.7-3.9 3.7.3 1.6 1.7 3.3 2.6 4.5l1.6 2.2h.1c3.7.1 7.4 0 11.1-.9z"/><path class="st380" d="M181.8 110.7c-1.4-1.5-3.3-2.3-5.2-2.8-1.5-.4-3-.8-4.5-1-1.3 2.8-1.2 6.4-.3 9.4 3.5-.2 6.5-.4 8.1-.8.7-.1 1.4-.3 2-.6.8-1.3 1.2-2.8-.1-4.2z"/><path class="st381" d="M170.8 114.7c-3.6.9-7.2 1.1-10.9 1.1l.6 1.1c3.4-.1 7.2-.3 10.7-.5-.2-.6-.3-1.1-.4-1.7z"/><path class="st382" d="M156.9 112.5c-.8-1.1-1.7-2.3-2.1-3.7-1.6 1.2-3.4 2.1-5.4 2.8.5 1.9 1.1 3.8 1.7 5.7.1.1.2.2.2.3v-.1c1-.2 4.4-.4 8.5-.6-.8-1.6-1.9-3-2.9-4.4z"/><path class="st383" d="M128.8 85.4c1.6.9 3.1 1.8 4.6 2.8-.1-1.8-.3-3.5-.3-5.3-1.1-.8-2.1-1.5-2.6-1.9-2 .3-4.2.8-6.1 1.7 1.2 1.3 2.9 1.8 4.4 2.7z"/><path class="st384" d="M133.5 90.5l-.1-1.5c-1.7-1.1-3.5-2.3-5.3-3.2-1.5-.7-3-1.4-4.2-2.6l-.1-.1c-.6.3-1.1.7-1.6 1.1-.4.4-.8.9-1.1 1.4.6.6 1.2 1.1 1.9 1.7 3.6 3.2 7.4 6 10.9 9.3-.5-2-.3-4.1-.4-6.1z"/><path class="st385" d="M81.9 73.7c1.8-.1 3.5-1.3 5-2.1 1.3-.7 1.7-1.5 2-2.9.2-1 .7-1.8.7-2.8v-.1c-.6-.6-1.3-1.1-2.1-1.3-.8-.3-1.7-.4-2.5-.5-1.7-.3-3.2-1.1-4.8-1.5-2.4 2.5-1.9 7.8.2 10.3.4.4.8.8 1.2 1.1l.3-.2z"/><path class="st386" d="M98.8 71.5c-1.7-.7-3.2-1.7-4.8-2.7-1.3-.8-2.6-1.4-3.7-2.4l-.1-.1c-.1 1-.5 2-.8 3-.2.7-.4 1.7-1 2.2-1 .8-2.2 1.2-3.3 1.8-.9.5-1.7.9-2.7 1 2.4 1.6 5.5 2.1 8.2 2.9 2.6-1.5 5.3-2.8 8.3-3.4-.1-.7-.1-1.5-.1-2.3z"/><path class="st387" d="M89.8 47.7c1.7.1 3.4-.4 5.1-.2 1.7.2 3.3.7 5 .5l.1-.6c0-.1 0-.2-.1-.3 0-.2.1-.3.2-.3.5-2.1 1.2-4.1 2.1-6-1.2-1.3-2.8-2-4.2-3-1.3-.8-2.7-1.7-4.2-2.1v.3c-.6 4.1-2 8.1-4 11.7z"/><path class="st388" d="M94.4 48.1c-1.7 0-3.3.4-4.9.2l-.4.8-1.2 2 .1.1c.7 2.3 2 4.2 3.2 6.2.1 0 .1 0 .2.1 2.5.2 5 .7 7.5.7v-.7c.1-3 .4-5.9.9-8.8-1.8.1-3.5-.6-5.4-.6z"/><path class="st389" d="M95.8 10.4l1.7-.6c-.5-3.2-.9-6.4-1-9.6-2.7.6-5.7 2.2-8 4.4 1.2 1.9 2.9 3.6 3.9 5.6.2.4.4.8.5 1.2 1-.1 1.9-.7 2.9-1z"/><path class="st390" d="M98.5 9.3c1.4-.8 3.4-1.5 4.5-2.6 0 0 .1 0 .1-.1.4-1.6.9-3.3 1.6-4.9-3.8-2-6.6-1.8-7.6-1.7.1 3.2.5 6.3.9 9.5.1 0 .3-.1.5-.2z"/><path class="st391" d="M101.9 15.6c0-2.7.3-5.3.9-7.9-1.2 1-2.8 1.6-4.1 2.3-1.1.6-2.2.8-3.3 1.2-.8.3-1.4.7-2.2.8.7 1.6 1.1 3.3 1.5 5.1 2.6.1 5.2.2 7.4 1.6-.1-.9-.1-1.8-.1-2.8-.2 0-.2-.2-.1-.3z"/><path class="st392" d="M94.7 17.8c.6 3.7.3 7.6-.1 11.4 2.8-1 5.4-2.2 8.4-2.4-.5-2.4-.8-4.8-1-7.2-2-1.7-4.7-1.7-7.3-1.8z"/><path class="st393" d="M103.8 30l-.3-1.2-.3-1.4c-3 .2-5.8 1.5-8.6 2.5l-.5 4.3-.1.9c1.6.4 3 1.2 4.3 2.1 1.4 1 3.1 1.7 4.3 3 .8-1.6 1.7-3 2.9-4.4-.6-1.8-1.2-3.6-1.6-5.5-.1-.1-.1-.2-.1-.3z"/><path class="st394" d="M88.9 64.4c.6-1.2.6-2.6.9-3.8.2-.9.7-1.8 1-2.6-1.3-2-2.6-4-3.3-6.3-1 1.5-2 2.9-2.9 4.4-1.2 2-2.3 4-3.8 5.9 1.7.5 3.2 1.2 4.9 1.5 1.2.1 2.2.4 3.2.9z"/><path class="st395" d="M98.8 58.9c-2.5-.1-5-.5-7.5-.7-.5 1.1-1 2.2-1.2 3.5-.2 1.1-.3 2.1-.7 3.1v.1l.2.1c2.8 2.3 6 4.4 9.3 5.9v-.8c-.1-3.8-.2-7.5-.1-11.2z"/><path class="st396" d="M107.4 16.4c-.8-4.4-.5-8.9-.7-13.4-.5-.4-1-.7-1.5-1-1.8 4.3-2.6 8.9-2.7 13.5 1.6.3 3.2.5 4.9.9z"/><path class="st252" d="M107.5 25.4c.7-.7 1.4-1.3 2.2-2-.9-2-1.6-4.1-2.1-6.3-1.7-.4-3.4-.6-5.1-.9 0 4.4.7 8.9 1.8 13.2 1-1.4 1.9-2.8 3.2-4z"/><path class="st88" d="M117 33.7c-1.9-2-3.6-4.1-5.2-6.3-.8-1.1-1.4-2.3-2-3.4-.7.6-1.4 1.3-2.1 2-1.2 1.3-2.2 2.8-3.4 4.2.5 1.7.9 3.5 1.5 5.2 3.9-.2 7.6-.6 11.2-1.7z"/><path class="st397" d="M116.8 42.3c1.4-1.7 2.5-3.5 4.1-5-1.2-1-2.3-2-3.3-3.1-3.7 1.1-7.5 1.6-11.4 1.7.9 2.4 2 4.8 3.7 6.7 1.3 1.5 2.8 2.8 4.3 4.1.3-1.7 1.5-3 2.6-4.4z"/><path class="st398" d="M128.4 44.8c.5 1.1 1 2.2 1.4 3.3l1.1 2.8c-.3-2.3-.8-5-1.4-7.8l-1.5-.8c-.1 0-.2 0-.3-.1l-1.2-.7c.5 1.1 1.3 2.1 1.9 3.3z"/><path class="st399" d="M127.7 44.8c-.2-.3-.3-.6-.6-.9-.5-.9-1.1-1.7-1.4-2.6v-.2c-1.5-1-3-2.1-4.4-3.2-1.5 1.4-2.5 3.1-3.8 4.6-1.2 1.5-2.6 2.9-2.8 4.8.9.8 1.8 1.6 2.6 2.5 3.1-2.6 7.6-2.2 10.4-5z"/><path class="st400" d="M118.6 51.2c2.1 2.5 5.5 4.5 7.3 7.5.3-.5.5-1 .7-1.5 1.1-2.6 2-5.3 3-7.9-.1-.3-.2-.7-.4-1l-1.2-3c-2.8 2.8-7.2 2.4-10.3 4.9.3.3.5.6.7.9.1 0 .2 0 .2.1z"/><path class="st401" d="M127.1 63.1c1.2.1 2.4.1 3.7.2.6-3.1.8-6.5.5-9.5l-.1-.9-1.2-2.8-2 5.3c-.5 1.3-1 2.7-1.7 3.9.3.6.5 1.1.6 1.8.1.6.2 1.3.2 2z"/><path class="st402" d="M130.6 63.9c-1.2 0-2.4 0-3.5-.1-.2 3.2-1.7 6.4-3.4 9.1 1.3-.1 2.6-.4 3.8-.8V72c1.4-1.7 2.5-4.7 3.1-8.1z"/><path class="st403" d="M75.5 33.6c-.6 2.7-.9 6.1-1.2 8.5.9-.9 1.9-1.8 2.2-3.1-.4-1.8-.7-3.6-1-5.4z"/><path class="st404" d="M83.4 15.5c1.1 0 2.1.1 3.2-.1-.1-2.5-.3-5-.7-7.5 0 0 0 .1-.1.1-1.4 2.7-2.9 4.8-4.6 7.8.7 0 1.4-.3 2.2-.3z"/><path class="st405" d="M83 16.3c-.8.1-1.5.3-2.2.4-.6 1.2-1.3 2.4-2 3.9-1.1 2.3-1.6 3.9-1.9 5.3 1-.2 2-.1 3.1.1 2.1.4 3.8.4 5.8-.4.7-3.2.9-6.4.9-9.6l-3.7.3z"/><path class="st406" d="M81.4 27.1c-1.6-.3-3.2-.7-4.7-.4-.3 1.8-.3 3.2-.8 5.3.2 2.2.6 4.4 1.1 6.5.8-.5 1.8-1.1 2.8-1.1.4 0 .8.1 1.3.2 1.4-2.4 2.6-4.8 3.5-7.5.4-1.2.7-2.4 1-3.7-1.4.6-2.8.9-4.2.7z"/><path class="st407" d="M77 39.2c-.4 1.6-1.7 2.6-2.8 3.8-.1.7-.1 1.2-.2 1.6-.1.6-.3 1.5-.5 2.8 2.1-2.1 4.2-4.2 5.6-6.7l1.5-2.5c-1.2-.1-2.3.2-3.6 1z"/><path class="st408" d="M16.1 426c0 .1 0 .3-.1.6s-.1.5-.2.6c-.2.8-.5 1.5-1 2.2-.5.7-1 1.3-1.6 1.8-.6.5-1.3.9-1.9 1.1-.7.3-1.3.4-2 .4H0v-55.9h9.4c.1 0 .4 0 .7.1.3.1.6.1.8.2.9.1 1.8.6 2.8 1.6 1 1 1.6 1.9 1.9 2.9.1.2.2.5.3 1 .1.5.1.8.1.8v15.9c0 .5-.2 1.2-.6 2.1-.4.9-.8 1.4-1.1 1.7.3.3.7.8 1.1 1.8.4.9.6 1.6.6 2.1v19zm-5.4-27.1v-15.2c0-.3-.2-.6-.5-.9-.4-.3-.6-.5-.8-.5h-4v18h3.7c.3 0 .7-.2 1-.5.4-.2.6-.5.6-.9zm0 26.9v-18.5c0-.3-.2-.6-.5-.9-.4-.3-.6-.5-.8-.5h-4v21.3h3.7c.3 0 .7-.2 1-.5.4-.3.6-.6.6-.9zm32.1 6.9h-5.1l-2.3-16.2h-6.3l-2.4 16.2h-5.1c.7-4.5 1.3-9.2 2-13.9.7-4.7 1.4-9.4 2-14.1.7-4.7 1.4-9.2 2-13.8.7-4.5 1.3-8.8 1.9-12.9v-1.2h5.1v.5l8.2 55.4zm-8.3-21.5l-2.3-16.3-2.4 16.3h4.7zm29 21.3h-5.4l-4.7-24.3h-1.8v24.3h-5.4v-55.8h9c.1 0 .4 0 .7.1.3.1.6.1.7.2.9.1 1.8.7 2.9 1.6 1 .9 1.7 1.9 2 2.8.1.3.2.6.3 1.1.1.5.2.7.2.9v18.3c0 .8-.3 1.8-1 2.9-.6 1.1-1.3 1.8-2 2.3l-.3.3 4.8 25.3zm-7.1-31.2v-17.7c0-.3-.2-.6-.5-.9-.4-.4-.7-.5-.9-.5h-3.4v20.5h3.3c.3 0 .7-.2 1-.4.4-.4.5-.7.5-1zm30.4-10.8l-5.4 6.4v-13.2l-.2-.3-.2-.3c-.1-.2-.3-.4-.5-.5-.2-.1-.4-.2-.5-.3h-4.6c-.1.1-.2.1-.3.1-.1 0-.2.1-.3.2l-.5.5-.2.3c-.1.1-.1.2-.1.3v42.2c0 .2.2.5.5.8.4.4.7.5.9.5H80c.2 0 .6-.2.9-.5.3-.4.5-.7.5-.9v-9l5.5-6.9V426c0 .4-.1.9-.4 1.6-.3.7-.5 1.1-.6 1.2-.7 1-1.4 1.8-2.1 2.3-.7.5-1.4.9-2.1 1.1-.7.2-1.3.3-2 .3h-1.9c-1.2 0-2.4-.1-3.6-.2-1.2-.1-2.4-.9-3.8-2.2-.4-.5-.7-1-.9-1.4-.1-.3-.3-.7-.6-1.4-.3-.6-.4-1.1-.4-1.5v-42.7c0-.1 0-.3.1-.5s.1-.4.1-.5c.1-.6.3-1.3.8-2 .4-.7 1-1.3 1.5-1.8.6-.5 1.2-.9 1.8-1.3.6-.3 1.2-.5 1.7-.5.1 0 .2 0 .3-.1h.3c.4-.1.9-.1 1.5-.1s.9.1 1.1.1h2.5c1.1 0 2.3.4 3.6 1.3 1.3.9 2.1 2 2.6 3.4.1.2.2.5.3 1l.2.9v7.5zm22.2 42.2H93.3v-55.9H109v5.4H98.7v29.1h7.3v5.4h-7.3v10.5H109v5.5zm22.5-.1h-15.6v-55.9h5.4v50.4h10.2v5.5zm23.5-6.8c0 .4-.1.9-.4 1.7-.3.7-.5 1.1-.6 1.3-.1.1-.3.3-.4.5-.1.2-.3.5-.5.7-1.2 1.4-2.5 2.1-3.8 2.2-1.3.1-2.5.2-3.5.2h-1.9c-.5 0-1.1-.1-1.6-.2-.6-.1-1.1-.3-1.7-.7-.6-.3-1.3-.8-2-1.6-.1-.1-.3-.3-.4-.6-.1-.3-.3-.5-.4-.7-.2-.2-.4-.7-.6-1.4-.2-.7-.3-1.2-.3-1.5V383c0-.1 0-.2.1-.4s.1-.4.1-.5c.1-.6.3-1.3.7-1.9.4-.6.9-1.2 1.5-1.8.6-.5 1.2-.9 1.8-1.3.6-.3 1.2-.5 1.7-.6.3 0 .5 0 .6-.1h2.4c1.4 0 2.7.1 3.7.2 1.1.2 2.3.9 3.6 2.3.2.1.4.3.5.6.1.3.3.5.4.7.2.2.4.5.5 1 .1.3.2.6.3 1 .1.4.1.7.1.8v42.8zm-5.5-.2v-42.1c0-.1 0-.2-.1-.3l-.2-.3-.4-.4-.3-.2c-.1-.1-.2-.1-.3-.1-.4-.1-.8-.1-1.3-.1s-.8.1-.9.1c-.1 0-.3 0-.8-.1-.5 0-.9 0-1.3.1-.5 0-.8.2-1.1.7l-.2.4c-.1.1-.1.2-.1.3v42.1c0 .3.2.6.5.9.3.3.6.5.9.6h4.5c.1-.1.4-.2.8-.5.1-.5.3-.8.3-1.1zm29.5 7.1h-5.4l-7.3-31.8v31.8h-5.4v-55.8h5.5l7.1 31.8v-31.8h5.5v55.8zm22.7 0H186v-55.9h15.7v5.4h-10.3v29.1h7.3v5.4h-7.3v10.5h10.3v5.5zm24.4-50.6h-6.3v50.4h-5.4v-50.4H208v-5.5h18.2v5.5zm24.6 50.6h-5.1l-2.3-16.2H237l-2.4 16.2h-5.1c.6-4.5 1.3-9.2 2-13.9l2-14.1c.7-4.7 1.4-9.2 2-13.8.7-4.5 1.3-8.8 1.9-12.9 0-.1 0-.3.1-.6 0-.3 0-.5-.1-.6h5.2v.5l8.1 55.4zm-8.3-21.5l-2.3-16.3-2.4 16.3h4.7zM1.2 467.6c0-1.4.3-2.4 1-3.2.6-.7 1.6-1.1 3-1.1 1.3 0 2.3.4 2.9 1.1.6.7 1 1.8 1 3.2v13.5c0 1.4-.3 2.4-1 3.1-.7.7-1.6 1.1-2.9 1.1-1.3 0-2.3-.4-3-1.1-.6-.7-1-1.8-1-3.1v-13.5zm5.5 0c0-.6-.1-1.1-.3-1.4-.2-.3-.7-.5-1.3-.5-.6 0-1.1.2-1.3.5-.2.3-.3.8-.3 1.4V481c0 .6.1 1.1.3 1.4.2.3.6.5 1.3.5.6 0 1.1-.2 1.3-.5.2-.3.3-.8.3-1.4v-13.4zm17.6 22.2v-26.1h2c.1.5.1 1.1.1 1.6.3-.6.6-1.1 1.1-1.4.5-.3 1.1-.5 1.9-.5 1 0 1.7.3 2.3 1 .5.6.8 1.7.8 3v14c0 1.5-.2 2.5-.7 3-.5.6-1.3.9-2.4.9-.6 0-1.1-.1-1.5-.4-.4-.2-.8-.6-1.1-.9v5.8h-2.5zm5.8-22c0-.7-.1-1.1-.4-1.4-.2-.3-.6-.4-1.2-.4-.4 0-.7.1-1.1.3-.3.2-.6.6-.7 1v14.2c.2.5.4.8.7 1 .3.2.7.3 1.1.3.5 0 .9-.1 1.2-.4.2-.3.4-.7.4-1.3v-13.3zm22.7 8.5H55v4.7c0 2.9-1.3 4.3-3.8 4.3s-3.7-1.4-3.7-4.3v-13.3c0-1.5.3-2.5.9-3.3.6-.7 1.6-1.1 2.7-1.1 2.6 0 3.8 1.5 3.8 4.4v6.9h-5.3v6.5c0 1.3.5 1.9 1.5 1.9 1.1 0 1.6-.6 1.6-1.9v-4.8zm0-8.6c0-1.3-.5-1.9-1.6-1.9-1 0-1.5.6-1.5 1.9v5.1h3.1v-5.1zM76 485v-17.6c0-.6-.1-1.1-.3-1.3-.2-.3-.6-.4-1.1-.4-.3 0-.7.1-1 .3-.3.2-.6.5-.8 1v18h-2.4v-21.4h2c.1.5.1 1.1.1 1.6.3-.6.8-1.1 1.3-1.4.5-.3 1.1-.5 1.8-.5 1 0 1.7.3 2.1.9.5.6.7 1.6.7 3V485H76zm41.6 0l-3.9-11v11h-2.3v-28.4h2.3v16.2l3.9-9.2h2.5l-4.2 9.4 4.3 11.9h-2.6zm17.3-24.1v-4.3h2.4v4.3h-2.4zm0 24.1v-21.4h2.4V485h-2.4zm22.9.1c-.1 0-.3.1-.5.1l-.6.1c-1.3 0-2.2-.4-2.8-1.2-.6-.8-.9-1.9-.9-3.2v-15.1h-1v-2.1h1v-6.8h2.4v6.8h2.4v2.1h-2.4v15.1c0 .9.2 1.5.5 1.8.3.4.8.5 1.6.5h.4v1.9zm19.9-8.8h2.2v4.8c0 1.3-.3 2.4-.9 3.1-.6.8-1.6 1.2-2.9 1.2-1.3 0-2.3-.4-2.9-1.2-.6-.8-1-1.8-1-3.2v-13.2c0-1.3.3-2.4 1-3.2.6-.8 1.6-1.2 2.9-1.2 1.3 0 2.3.4 2.8 1.2.6.8.9 1.9.9 3.2v4.6h-2.1v-4.7c0-1.3-.5-1.9-1.6-1.9-.5 0-.9.2-1.2.5-.3.3-.4.8-.4 1.4V481c0 1.3.5 1.9 1.6 1.9s1.6-.6 1.6-1.9v-4.7zm23 8.7v-17.6c0-.6-.1-1.1-.3-1.3-.2-.3-.6-.4-1.1-.4-.4 0-.7.1-1 .3-.3.2-.6.5-.8 1v18h-2.4v-28.4h2.4v8.2c.3-.5.7-.8 1.2-1.1.5-.3 1-.4 1.6-.4 1 0 1.7.3 2.1.9.4.6.7 1.6.7 3V485h-2.4zm22.9-8.7h2.2v4.7c0 2.9-1.3 4.3-3.8 4.3s-3.7-1.4-3.7-4.3v-13.3c0-1.5.3-2.5 1-3.3.6-.7 1.6-1.1 2.7-1.1 2.5 0 3.8 1.5 3.8 4.4v6.9h-5.3v6.5c0 1.3.5 1.9 1.5 1.9 1.1 0 1.6-.6 1.6-1.9v-4.8zm0-8.6c0-1.3-.5-1.9-1.6-1.9-1 0-1.5.6-1.5 1.9v5.1h3.1v-5.1zm23.1 17.3v-17.6c0-.6-.1-1.1-.3-1.3-.2-.3-.6-.4-1.1-.4-.3 0-.7.1-1 .3-.3.2-.6.5-.8 1v18h-2.4v-21.4h2c.1.5.1 1.1.1 1.6.3-.6.7-1.1 1.3-1.4.5-.3 1.1-.5 1.8-.5 1 0 1.7.3 2.1.9.4.6.7 1.6.7 3V485h-2.4z"/></svg>